<?xml version="1.0" encoding="utf-8" standalone="no"?>
<!DOCTYPE svg PUBLIC "-//W3C//DTD SVG 1.1//EN"
  "http://www.w3.org/Graphics/SVG/1.1/DTD/svg11.dtd">
<svg xmlns:xlink="http://www.w3.org/1999/xlink" width="1656pt" height="576pt" viewBox="0 0 1656 576" xmlns="http://www.w3.org/2000/svg" version="1.1">
 <metadata>
  <rdf:RDF xmlns:dc="http://purl.org/dc/elements/1.1/" xmlns:cc="http://creativecommons.org/ns#" xmlns:rdf="http://www.w3.org/1999/02/22-rdf-syntax-ns#">
   <cc:Work>
    <dc:type rdf:resource="http://purl.org/dc/dcmitype/StillImage"/>
    <dc:date>2025-07-23T15:15:23.672973</dc:date>
    <dc:format>image/svg+xml</dc:format>
    <dc:creator>
     <cc:Agent>
      <dc:title>Matplotlib v3.10.3, https://matplotlib.org/</dc:title>
     </cc:Agent>
    </dc:creator>
   </cc:Work>
  </rdf:RDF>
 </metadata>
 <defs>
  <style type="text/css">*{stroke-linejoin: round; stroke-linecap: butt}</style>
 </defs>
 <g id="figure_1">
  <g id="patch_1">
   <path d="M 0 576 
L 1656 576 
L 1656 0 
L 0 0 
z
" style="fill: #ffffff"/>
  </g>
  <g id="axes_1">
   <g id="patch_2">
    <path d="M 69.77 548.01875 
L 1586.14 548.01875 
L 1586.14 26.88 
L 69.77 26.88 
z
" style="fill: #ffffff"/>
   </g>
   <g id="patch_3">
    <path d="M 138.695909 548.01875 
L 212.545097 548.01875 
L 212.545097 299.710623 
L 138.695909 299.710623 
z
" clip-path="url(#p6ca8c561f7)" style="fill: #7fcdbb"/>
   </g>
   <g id="patch_4">
    <path d="M 384.85987 548.01875 
L 458.709058 548.01875 
L 458.709058 413.436195 
L 384.85987 413.436195 
z
" clip-path="url(#p6ca8c561f7)" style="fill: #7fcdbb"/>
   </g>
   <g id="patch_5">
    <path d="M 631.023831 548.01875 
L 704.873019 548.01875 
L 704.873019 419.870136 
L 631.023831 419.870136 
z
" clip-path="url(#p6ca8c561f7)" style="fill: #7fcdbb"/>
   </g>
   <g id="patch_6">
    <path d="M 877.187792 548.01875 
L 951.036981 548.01875 
L 951.036981 424.663042 
L 877.187792 424.663042 
z
" clip-path="url(#p6ca8c561f7)" style="fill: #7fcdbb"/>
   </g>
   <g id="patch_7">
    <path d="M 1123.351753 548.01875 
L 1197.200942 548.01875 
L 1197.200942 431.647134 
L 1123.351753 431.647134 
z
" clip-path="url(#p6ca8c561f7)" style="fill: #7fcdbb"/>
   </g>
   <g id="patch_8">
    <path d="M 1369.515714 548.01875 
L 1443.364903 548.01875 
L 1443.364903 441.854014 
L 1369.515714 441.854014 
z
" clip-path="url(#p6ca8c561f7)" style="fill: #7fcdbb"/>
   </g>
   <g id="patch_9">
    <path d="M 212.545097 548.01875 
L 286.394286 548.01875 
L 286.394286 51.696131 
L 212.545097 51.696131 
z
" clip-path="url(#p6ca8c561f7)" style="fill: #41b6c4"/>
   </g>
   <g id="patch_10">
    <path d="M 458.709058 548.01875 
L 532.558247 548.01875 
L 532.558247 276.203164 
L 458.709058 276.203164 
z
" clip-path="url(#p6ca8c561f7)" style="fill: #41b6c4"/>
   </g>
   <g id="patch_11">
    <path d="M 704.873019 548.01875 
L 778.722208 548.01875 
L 778.722208 289.800149 
L 704.873019 289.800149 
z
" clip-path="url(#p6ca8c561f7)" style="fill: #41b6c4"/>
   </g>
   <g id="patch_12">
    <path d="M 951.036981 548.01875 
L 1024.886169 548.01875 
L 1024.886169 301.500691 
L 951.036981 301.500691 
z
" clip-path="url(#p6ca8c561f7)" style="fill: #41b6c4"/>
   </g>
   <g id="patch_13">
    <path d="M 1197.200942 548.01875 
L 1271.05013 548.01875 
L 1271.05013 316.233435 
L 1197.200942 316.233435 
z
" clip-path="url(#p6ca8c561f7)" style="fill: #41b6c4"/>
   </g>
   <g id="patch_14">
    <path d="M 1443.364903 548.01875 
L 1517.214091 548.01875 
L 1517.214091 336.503701 
L 1443.364903 336.503701 
z
" clip-path="url(#p6ca8c561f7)" style="fill: #41b6c4"/>
   </g>
   <g id="matplotlib.axis_1">
    <g id="xtick_1">
     <g id="line2d_1">
      <defs>
       <path id="me2c993ee09" d="M 0 0 
L 0 3.5 
" style="stroke: #000000; stroke-width: 0.8"/>
      </defs>
      <g>
       <use xlink:href="#me2c993ee09" x="212.545097" y="548.01875" style="stroke: #000000; stroke-width: 0.8"/>
      </g>
     </g>
     <g id="text_1">
      <!-- Vanilla -->
      <g transform="translate(196.048222 562.617188) scale(0.1 -0.1)">
       <defs>
        <path id="DejaVuSans-56" d="M 1831 0 
L 50 4666 
L 709 4666 
L 2188 738 
L 3669 4666 
L 4325 4666 
L 2547 0 
L 1831 0 
z
" transform="scale(0.015625)"/>
        <path id="DejaVuSans-61" d="M 2194 1759 
Q 1497 1759 1228 1600 
Q 959 1441 959 1056 
Q 959 750 1161 570 
Q 1363 391 1709 391 
Q 2188 391 2477 730 
Q 2766 1069 2766 1631 
L 2766 1759 
L 2194 1759 
z
M 3341 1997 
L 3341 0 
L 2766 0 
L 2766 531 
Q 2569 213 2275 61 
Q 1981 -91 1556 -91 
Q 1019 -91 701 211 
Q 384 513 384 1019 
Q 384 1609 779 1909 
Q 1175 2209 1959 2209 
L 2766 2209 
L 2766 2266 
Q 2766 2663 2505 2880 
Q 2244 3097 1772 3097 
Q 1472 3097 1187 3025 
Q 903 2953 641 2809 
L 641 3341 
Q 956 3463 1253 3523 
Q 1550 3584 1831 3584 
Q 2591 3584 2966 3190 
Q 3341 2797 3341 1997 
z
" transform="scale(0.015625)"/>
        <path id="DejaVuSans-6e" d="M 3513 2113 
L 3513 0 
L 2938 0 
L 2938 2094 
Q 2938 2591 2744 2837 
Q 2550 3084 2163 3084 
Q 1697 3084 1428 2787 
Q 1159 2491 1159 1978 
L 1159 0 
L 581 0 
L 581 3500 
L 1159 3500 
L 1159 2956 
Q 1366 3272 1645 3428 
Q 1925 3584 2291 3584 
Q 2894 3584 3203 3211 
Q 3513 2838 3513 2113 
z
" transform="scale(0.015625)"/>
        <path id="DejaVuSans-69" d="M 603 3500 
L 1178 3500 
L 1178 0 
L 603 0 
L 603 3500 
z
M 603 4863 
L 1178 4863 
L 1178 4134 
L 603 4134 
L 603 4863 
z
" transform="scale(0.015625)"/>
        <path id="DejaVuSans-6c" d="M 603 4863 
L 1178 4863 
L 1178 0 
L 603 0 
L 603 4863 
z
" transform="scale(0.015625)"/>
       </defs>
       <use xlink:href="#DejaVuSans-56"/>
       <use xlink:href="#DejaVuSans-61" transform="translate(60.658203 0)"/>
       <use xlink:href="#DejaVuSans-6e" transform="translate(121.9375 0)"/>
       <use xlink:href="#DejaVuSans-69" transform="translate(185.316406 0)"/>
       <use xlink:href="#DejaVuSans-6c" transform="translate(213.099609 0)"/>
       <use xlink:href="#DejaVuSans-6c" transform="translate(240.882812 0)"/>
       <use xlink:href="#DejaVuSans-61" transform="translate(268.666016 0)"/>
      </g>
     </g>
    </g>
    <g id="xtick_2">
     <g id="line2d_2">
      <g>
       <use xlink:href="#me2c993ee09" x="458.709058" y="548.01875" style="stroke: #000000; stroke-width: 0.8"/>
      </g>
     </g>
     <g id="text_2">
      <!-- Spectral_Uneven_Repli_Act_4 -->
      <g transform="translate(385.455152 562.617188) scale(0.1 -0.1)">
       <defs>
        <path id="DejaVuSans-53" d="M 3425 4513 
L 3425 3897 
Q 3066 4069 2747 4153 
Q 2428 4238 2131 4238 
Q 1616 4238 1336 4038 
Q 1056 3838 1056 3469 
Q 1056 3159 1242 3001 
Q 1428 2844 1947 2747 
L 2328 2669 
Q 3034 2534 3370 2195 
Q 3706 1856 3706 1288 
Q 3706 609 3251 259 
Q 2797 -91 1919 -91 
Q 1588 -91 1214 -16 
Q 841 59 441 206 
L 441 856 
Q 825 641 1194 531 
Q 1563 422 1919 422 
Q 2459 422 2753 634 
Q 3047 847 3047 1241 
Q 3047 1584 2836 1778 
Q 2625 1972 2144 2069 
L 1759 2144 
Q 1053 2284 737 2584 
Q 422 2884 422 3419 
Q 422 4038 858 4394 
Q 1294 4750 2059 4750 
Q 2388 4750 2728 4690 
Q 3069 4631 3425 4513 
z
" transform="scale(0.015625)"/>
        <path id="DejaVuSans-70" d="M 1159 525 
L 1159 -1331 
L 581 -1331 
L 581 3500 
L 1159 3500 
L 1159 2969 
Q 1341 3281 1617 3432 
Q 1894 3584 2278 3584 
Q 2916 3584 3314 3078 
Q 3713 2572 3713 1747 
Q 3713 922 3314 415 
Q 2916 -91 2278 -91 
Q 1894 -91 1617 61 
Q 1341 213 1159 525 
z
M 3116 1747 
Q 3116 2381 2855 2742 
Q 2594 3103 2138 3103 
Q 1681 3103 1420 2742 
Q 1159 2381 1159 1747 
Q 1159 1113 1420 752 
Q 1681 391 2138 391 
Q 2594 391 2855 752 
Q 3116 1113 3116 1747 
z
" transform="scale(0.015625)"/>
        <path id="DejaVuSans-65" d="M 3597 1894 
L 3597 1613 
L 953 1613 
Q 991 1019 1311 708 
Q 1631 397 2203 397 
Q 2534 397 2845 478 
Q 3156 559 3463 722 
L 3463 178 
Q 3153 47 2828 -22 
Q 2503 -91 2169 -91 
Q 1331 -91 842 396 
Q 353 884 353 1716 
Q 353 2575 817 3079 
Q 1281 3584 2069 3584 
Q 2775 3584 3186 3129 
Q 3597 2675 3597 1894 
z
M 3022 2063 
Q 3016 2534 2758 2815 
Q 2500 3097 2075 3097 
Q 1594 3097 1305 2825 
Q 1016 2553 972 2059 
L 3022 2063 
z
" transform="scale(0.015625)"/>
        <path id="DejaVuSans-63" d="M 3122 3366 
L 3122 2828 
Q 2878 2963 2633 3030 
Q 2388 3097 2138 3097 
Q 1578 3097 1268 2742 
Q 959 2388 959 1747 
Q 959 1106 1268 751 
Q 1578 397 2138 397 
Q 2388 397 2633 464 
Q 2878 531 3122 666 
L 3122 134 
Q 2881 22 2623 -34 
Q 2366 -91 2075 -91 
Q 1284 -91 818 406 
Q 353 903 353 1747 
Q 353 2603 823 3093 
Q 1294 3584 2113 3584 
Q 2378 3584 2631 3529 
Q 2884 3475 3122 3366 
z
" transform="scale(0.015625)"/>
        <path id="DejaVuSans-74" d="M 1172 4494 
L 1172 3500 
L 2356 3500 
L 2356 3053 
L 1172 3053 
L 1172 1153 
Q 1172 725 1289 603 
Q 1406 481 1766 481 
L 2356 481 
L 2356 0 
L 1766 0 
Q 1100 0 847 248 
Q 594 497 594 1153 
L 594 3053 
L 172 3053 
L 172 3500 
L 594 3500 
L 594 4494 
L 1172 4494 
z
" transform="scale(0.015625)"/>
        <path id="DejaVuSans-72" d="M 2631 2963 
Q 2534 3019 2420 3045 
Q 2306 3072 2169 3072 
Q 1681 3072 1420 2755 
Q 1159 2438 1159 1844 
L 1159 0 
L 581 0 
L 581 3500 
L 1159 3500 
L 1159 2956 
Q 1341 3275 1631 3429 
Q 1922 3584 2338 3584 
Q 2397 3584 2469 3576 
Q 2541 3569 2628 3553 
L 2631 2963 
z
" transform="scale(0.015625)"/>
        <path id="DejaVuSans-5f" d="M 3263 -1063 
L 3263 -1509 
L -63 -1509 
L -63 -1063 
L 3263 -1063 
z
" transform="scale(0.015625)"/>
        <path id="DejaVuSans-55" d="M 556 4666 
L 1191 4666 
L 1191 1831 
Q 1191 1081 1462 751 
Q 1734 422 2344 422 
Q 2950 422 3222 751 
Q 3494 1081 3494 1831 
L 3494 4666 
L 4128 4666 
L 4128 1753 
Q 4128 841 3676 375 
Q 3225 -91 2344 -91 
Q 1459 -91 1007 375 
Q 556 841 556 1753 
L 556 4666 
z
" transform="scale(0.015625)"/>
        <path id="DejaVuSans-76" d="M 191 3500 
L 800 3500 
L 1894 563 
L 2988 3500 
L 3597 3500 
L 2284 0 
L 1503 0 
L 191 3500 
z
" transform="scale(0.015625)"/>
        <path id="DejaVuSans-52" d="M 2841 2188 
Q 3044 2119 3236 1894 
Q 3428 1669 3622 1275 
L 4263 0 
L 3584 0 
L 2988 1197 
Q 2756 1666 2539 1819 
Q 2322 1972 1947 1972 
L 1259 1972 
L 1259 0 
L 628 0 
L 628 4666 
L 2053 4666 
Q 2853 4666 3247 4331 
Q 3641 3997 3641 3322 
Q 3641 2881 3436 2590 
Q 3231 2300 2841 2188 
z
M 1259 4147 
L 1259 2491 
L 2053 2491 
Q 2509 2491 2742 2702 
Q 2975 2913 2975 3322 
Q 2975 3731 2742 3939 
Q 2509 4147 2053 4147 
L 1259 4147 
z
" transform="scale(0.015625)"/>
        <path id="DejaVuSans-41" d="M 2188 4044 
L 1331 1722 
L 3047 1722 
L 2188 4044 
z
M 1831 4666 
L 2547 4666 
L 4325 0 
L 3669 0 
L 3244 1197 
L 1141 1197 
L 716 0 
L 50 0 
L 1831 4666 
z
" transform="scale(0.015625)"/>
        <path id="DejaVuSans-34" d="M 2419 4116 
L 825 1625 
L 2419 1625 
L 2419 4116 
z
M 2253 4666 
L 3047 4666 
L 3047 1625 
L 3713 1625 
L 3713 1100 
L 3047 1100 
L 3047 0 
L 2419 0 
L 2419 1100 
L 313 1100 
L 313 1709 
L 2253 4666 
z
" transform="scale(0.015625)"/>
       </defs>
       <use xlink:href="#DejaVuSans-53"/>
       <use xlink:href="#DejaVuSans-70" transform="translate(63.476562 0)"/>
       <use xlink:href="#DejaVuSans-65" transform="translate(126.953125 0)"/>
       <use xlink:href="#DejaVuSans-63" transform="translate(188.476562 0)"/>
       <use xlink:href="#DejaVuSans-74" transform="translate(243.457031 0)"/>
       <use xlink:href="#DejaVuSans-72" transform="translate(282.666016 0)"/>
       <use xlink:href="#DejaVuSans-61" transform="translate(323.779297 0)"/>
       <use xlink:href="#DejaVuSans-6c" transform="translate(385.058594 0)"/>
       <use xlink:href="#DejaVuSans-5f" transform="translate(412.841797 0)"/>
       <use xlink:href="#DejaVuSans-55" transform="translate(462.841797 0)"/>
       <use xlink:href="#DejaVuSans-6e" transform="translate(536.035156 0)"/>
       <use xlink:href="#DejaVuSans-65" transform="translate(599.414062 0)"/>
       <use xlink:href="#DejaVuSans-76" transform="translate(660.9375 0)"/>
       <use xlink:href="#DejaVuSans-65" transform="translate(720.117188 0)"/>
       <use xlink:href="#DejaVuSans-6e" transform="translate(781.640625 0)"/>
       <use xlink:href="#DejaVuSans-5f" transform="translate(845.019531 0)"/>
       <use xlink:href="#DejaVuSans-52" transform="translate(895.019531 0)"/>
       <use xlink:href="#DejaVuSans-65" transform="translate(960.001953 0)"/>
       <use xlink:href="#DejaVuSans-70" transform="translate(1021.525391 0)"/>
       <use xlink:href="#DejaVuSans-6c" transform="translate(1085.001953 0)"/>
       <use xlink:href="#DejaVuSans-69" transform="translate(1112.785156 0)"/>
       <use xlink:href="#DejaVuSans-5f" transform="translate(1140.568359 0)"/>
       <use xlink:href="#DejaVuSans-41" transform="translate(1190.568359 0)"/>
       <use xlink:href="#DejaVuSans-63" transform="translate(1257.226562 0)"/>
       <use xlink:href="#DejaVuSans-74" transform="translate(1312.207031 0)"/>
       <use xlink:href="#DejaVuSans-5f" transform="translate(1351.416016 0)"/>
       <use xlink:href="#DejaVuSans-34" transform="translate(1401.416016 0)"/>
      </g>
     </g>
    </g>
    <g id="xtick_3">
     <g id="line2d_3">
      <g>
       <use xlink:href="#me2c993ee09" x="704.873019" y="548.01875" style="stroke: #000000; stroke-width: 0.8"/>
      </g>
     </g>
     <g id="text_3">
      <!-- Spectral_Uneven_Repli_Act_8 -->
      <g transform="translate(631.619113 562.617188) scale(0.1 -0.1)">
       <defs>
        <path id="DejaVuSans-38" d="M 2034 2216 
Q 1584 2216 1326 1975 
Q 1069 1734 1069 1313 
Q 1069 891 1326 650 
Q 1584 409 2034 409 
Q 2484 409 2743 651 
Q 3003 894 3003 1313 
Q 3003 1734 2745 1975 
Q 2488 2216 2034 2216 
z
M 1403 2484 
Q 997 2584 770 2862 
Q 544 3141 544 3541 
Q 544 4100 942 4425 
Q 1341 4750 2034 4750 
Q 2731 4750 3128 4425 
Q 3525 4100 3525 3541 
Q 3525 3141 3298 2862 
Q 3072 2584 2669 2484 
Q 3125 2378 3379 2068 
Q 3634 1759 3634 1313 
Q 3634 634 3220 271 
Q 2806 -91 2034 -91 
Q 1263 -91 848 271 
Q 434 634 434 1313 
Q 434 1759 690 2068 
Q 947 2378 1403 2484 
z
M 1172 3481 
Q 1172 3119 1398 2916 
Q 1625 2713 2034 2713 
Q 2441 2713 2670 2916 
Q 2900 3119 2900 3481 
Q 2900 3844 2670 4047 
Q 2441 4250 2034 4250 
Q 1625 4250 1398 4047 
Q 1172 3844 1172 3481 
z
" transform="scale(0.015625)"/>
       </defs>
       <use xlink:href="#DejaVuSans-53"/>
       <use xlink:href="#DejaVuSans-70" transform="translate(63.476562 0)"/>
       <use xlink:href="#DejaVuSans-65" transform="translate(126.953125 0)"/>
       <use xlink:href="#DejaVuSans-63" transform="translate(188.476562 0)"/>
       <use xlink:href="#DejaVuSans-74" transform="translate(243.457031 0)"/>
       <use xlink:href="#DejaVuSans-72" transform="translate(282.666016 0)"/>
       <use xlink:href="#DejaVuSans-61" transform="translate(323.779297 0)"/>
       <use xlink:href="#DejaVuSans-6c" transform="translate(385.058594 0)"/>
       <use xlink:href="#DejaVuSans-5f" transform="translate(412.841797 0)"/>
       <use xlink:href="#DejaVuSans-55" transform="translate(462.841797 0)"/>
       <use xlink:href="#DejaVuSans-6e" transform="translate(536.035156 0)"/>
       <use xlink:href="#DejaVuSans-65" transform="translate(599.414062 0)"/>
       <use xlink:href="#DejaVuSans-76" transform="translate(660.9375 0)"/>
       <use xlink:href="#DejaVuSans-65" transform="translate(720.117188 0)"/>
       <use xlink:href="#DejaVuSans-6e" transform="translate(781.640625 0)"/>
       <use xlink:href="#DejaVuSans-5f" transform="translate(845.019531 0)"/>
       <use xlink:href="#DejaVuSans-52" transform="translate(895.019531 0)"/>
       <use xlink:href="#DejaVuSans-65" transform="translate(960.001953 0)"/>
       <use xlink:href="#DejaVuSans-70" transform="translate(1021.525391 0)"/>
       <use xlink:href="#DejaVuSans-6c" transform="translate(1085.001953 0)"/>
       <use xlink:href="#DejaVuSans-69" transform="translate(1112.785156 0)"/>
       <use xlink:href="#DejaVuSans-5f" transform="translate(1140.568359 0)"/>
       <use xlink:href="#DejaVuSans-41" transform="translate(1190.568359 0)"/>
       <use xlink:href="#DejaVuSans-63" transform="translate(1257.226562 0)"/>
       <use xlink:href="#DejaVuSans-74" transform="translate(1312.207031 0)"/>
       <use xlink:href="#DejaVuSans-5f" transform="translate(1351.416016 0)"/>
       <use xlink:href="#DejaVuSans-38" transform="translate(1401.416016 0)"/>
      </g>
     </g>
    </g>
    <g id="xtick_4">
     <g id="line2d_4">
      <g>
       <use xlink:href="#me2c993ee09" x="951.036981" y="548.01875" style="stroke: #000000; stroke-width: 0.8"/>
      </g>
     </g>
     <g id="text_4">
      <!-- Spectral_Uneven_Repli_Act_12 -->
      <g transform="translate(874.601824 562.617188) scale(0.1 -0.1)">
       <defs>
        <path id="DejaVuSans-31" d="M 794 531 
L 1825 531 
L 1825 4091 
L 703 3866 
L 703 4441 
L 1819 4666 
L 2450 4666 
L 2450 531 
L 3481 531 
L 3481 0 
L 794 0 
L 794 531 
z
" transform="scale(0.015625)"/>
        <path id="DejaVuSans-32" d="M 1228 531 
L 3431 531 
L 3431 0 
L 469 0 
L 469 531 
Q 828 903 1448 1529 
Q 2069 2156 2228 2338 
Q 2531 2678 2651 2914 
Q 2772 3150 2772 3378 
Q 2772 3750 2511 3984 
Q 2250 4219 1831 4219 
Q 1534 4219 1204 4116 
Q 875 4013 500 3803 
L 500 4441 
Q 881 4594 1212 4672 
Q 1544 4750 1819 4750 
Q 2544 4750 2975 4387 
Q 3406 4025 3406 3419 
Q 3406 3131 3298 2873 
Q 3191 2616 2906 2266 
Q 2828 2175 2409 1742 
Q 1991 1309 1228 531 
z
" transform="scale(0.015625)"/>
       </defs>
       <use xlink:href="#DejaVuSans-53"/>
       <use xlink:href="#DejaVuSans-70" transform="translate(63.476562 0)"/>
       <use xlink:href="#DejaVuSans-65" transform="translate(126.953125 0)"/>
       <use xlink:href="#DejaVuSans-63" transform="translate(188.476562 0)"/>
       <use xlink:href="#DejaVuSans-74" transform="translate(243.457031 0)"/>
       <use xlink:href="#DejaVuSans-72" transform="translate(282.666016 0)"/>
       <use xlink:href="#DejaVuSans-61" transform="translate(323.779297 0)"/>
       <use xlink:href="#DejaVuSans-6c" transform="translate(385.058594 0)"/>
       <use xlink:href="#DejaVuSans-5f" transform="translate(412.841797 0)"/>
       <use xlink:href="#DejaVuSans-55" transform="translate(462.841797 0)"/>
       <use xlink:href="#DejaVuSans-6e" transform="translate(536.035156 0)"/>
       <use xlink:href="#DejaVuSans-65" transform="translate(599.414062 0)"/>
       <use xlink:href="#DejaVuSans-76" transform="translate(660.9375 0)"/>
       <use xlink:href="#DejaVuSans-65" transform="translate(720.117188 0)"/>
       <use xlink:href="#DejaVuSans-6e" transform="translate(781.640625 0)"/>
       <use xlink:href="#DejaVuSans-5f" transform="translate(845.019531 0)"/>
       <use xlink:href="#DejaVuSans-52" transform="translate(895.019531 0)"/>
       <use xlink:href="#DejaVuSans-65" transform="translate(960.001953 0)"/>
       <use xlink:href="#DejaVuSans-70" transform="translate(1021.525391 0)"/>
       <use xlink:href="#DejaVuSans-6c" transform="translate(1085.001953 0)"/>
       <use xlink:href="#DejaVuSans-69" transform="translate(1112.785156 0)"/>
       <use xlink:href="#DejaVuSans-5f" transform="translate(1140.568359 0)"/>
       <use xlink:href="#DejaVuSans-41" transform="translate(1190.568359 0)"/>
       <use xlink:href="#DejaVuSans-63" transform="translate(1257.226562 0)"/>
       <use xlink:href="#DejaVuSans-74" transform="translate(1312.207031 0)"/>
       <use xlink:href="#DejaVuSans-5f" transform="translate(1351.416016 0)"/>
       <use xlink:href="#DejaVuSans-31" transform="translate(1401.416016 0)"/>
       <use xlink:href="#DejaVuSans-32" transform="translate(1465.039062 0)"/>
      </g>
     </g>
    </g>
    <g id="xtick_5">
     <g id="line2d_5">
      <g>
       <use xlink:href="#me2c993ee09" x="1197.200942" y="548.01875" style="stroke: #000000; stroke-width: 0.8"/>
      </g>
     </g>
     <g id="text_5">
      <!-- Spectral_Uneven_Repli_Act_16 -->
      <g transform="translate(1120.765785 562.617188) scale(0.1 -0.1)">
       <defs>
        <path id="DejaVuSans-36" d="M 2113 2584 
Q 1688 2584 1439 2293 
Q 1191 2003 1191 1497 
Q 1191 994 1439 701 
Q 1688 409 2113 409 
Q 2538 409 2786 701 
Q 3034 994 3034 1497 
Q 3034 2003 2786 2293 
Q 2538 2584 2113 2584 
z
M 3366 4563 
L 3366 3988 
Q 3128 4100 2886 4159 
Q 2644 4219 2406 4219 
Q 1781 4219 1451 3797 
Q 1122 3375 1075 2522 
Q 1259 2794 1537 2939 
Q 1816 3084 2150 3084 
Q 2853 3084 3261 2657 
Q 3669 2231 3669 1497 
Q 3669 778 3244 343 
Q 2819 -91 2113 -91 
Q 1303 -91 875 529 
Q 447 1150 447 2328 
Q 447 3434 972 4092 
Q 1497 4750 2381 4750 
Q 2619 4750 2861 4703 
Q 3103 4656 3366 4563 
z
" transform="scale(0.015625)"/>
       </defs>
       <use xlink:href="#DejaVuSans-53"/>
       <use xlink:href="#DejaVuSans-70" transform="translate(63.476562 0)"/>
       <use xlink:href="#DejaVuSans-65" transform="translate(126.953125 0)"/>
       <use xlink:href="#DejaVuSans-63" transform="translate(188.476562 0)"/>
       <use xlink:href="#DejaVuSans-74" transform="translate(243.457031 0)"/>
       <use xlink:href="#DejaVuSans-72" transform="translate(282.666016 0)"/>
       <use xlink:href="#DejaVuSans-61" transform="translate(323.779297 0)"/>
       <use xlink:href="#DejaVuSans-6c" transform="translate(385.058594 0)"/>
       <use xlink:href="#DejaVuSans-5f" transform="translate(412.841797 0)"/>
       <use xlink:href="#DejaVuSans-55" transform="translate(462.841797 0)"/>
       <use xlink:href="#DejaVuSans-6e" transform="translate(536.035156 0)"/>
       <use xlink:href="#DejaVuSans-65" transform="translate(599.414062 0)"/>
       <use xlink:href="#DejaVuSans-76" transform="translate(660.9375 0)"/>
       <use xlink:href="#DejaVuSans-65" transform="translate(720.117188 0)"/>
       <use xlink:href="#DejaVuSans-6e" transform="translate(781.640625 0)"/>
       <use xlink:href="#DejaVuSans-5f" transform="translate(845.019531 0)"/>
       <use xlink:href="#DejaVuSans-52" transform="translate(895.019531 0)"/>
       <use xlink:href="#DejaVuSans-65" transform="translate(960.001953 0)"/>
       <use xlink:href="#DejaVuSans-70" transform="translate(1021.525391 0)"/>
       <use xlink:href="#DejaVuSans-6c" transform="translate(1085.001953 0)"/>
       <use xlink:href="#DejaVuSans-69" transform="translate(1112.785156 0)"/>
       <use xlink:href="#DejaVuSans-5f" transform="translate(1140.568359 0)"/>
       <use xlink:href="#DejaVuSans-41" transform="translate(1190.568359 0)"/>
       <use xlink:href="#DejaVuSans-63" transform="translate(1257.226562 0)"/>
       <use xlink:href="#DejaVuSans-74" transform="translate(1312.207031 0)"/>
       <use xlink:href="#DejaVuSans-5f" transform="translate(1351.416016 0)"/>
       <use xlink:href="#DejaVuSans-31" transform="translate(1401.416016 0)"/>
       <use xlink:href="#DejaVuSans-36" transform="translate(1465.039062 0)"/>
      </g>
     </g>
    </g>
    <g id="xtick_6">
     <g id="line2d_6">
      <g>
       <use xlink:href="#me2c993ee09" x="1443.364903" y="548.01875" style="stroke: #000000; stroke-width: 0.8"/>
      </g>
     </g>
     <g id="text_6">
      <!-- Spectral_Uneven_Repli_Act_20 -->
      <g transform="translate(1366.929746 562.617188) scale(0.1 -0.1)">
       <defs>
        <path id="DejaVuSans-30" d="M 2034 4250 
Q 1547 4250 1301 3770 
Q 1056 3291 1056 2328 
Q 1056 1369 1301 889 
Q 1547 409 2034 409 
Q 2525 409 2770 889 
Q 3016 1369 3016 2328 
Q 3016 3291 2770 3770 
Q 2525 4250 2034 4250 
z
M 2034 4750 
Q 2819 4750 3233 4129 
Q 3647 3509 3647 2328 
Q 3647 1150 3233 529 
Q 2819 -91 2034 -91 
Q 1250 -91 836 529 
Q 422 1150 422 2328 
Q 422 3509 836 4129 
Q 1250 4750 2034 4750 
z
" transform="scale(0.015625)"/>
       </defs>
       <use xlink:href="#DejaVuSans-53"/>
       <use xlink:href="#DejaVuSans-70" transform="translate(63.476562 0)"/>
       <use xlink:href="#DejaVuSans-65" transform="translate(126.953125 0)"/>
       <use xlink:href="#DejaVuSans-63" transform="translate(188.476562 0)"/>
       <use xlink:href="#DejaVuSans-74" transform="translate(243.457031 0)"/>
       <use xlink:href="#DejaVuSans-72" transform="translate(282.666016 0)"/>
       <use xlink:href="#DejaVuSans-61" transform="translate(323.779297 0)"/>
       <use xlink:href="#DejaVuSans-6c" transform="translate(385.058594 0)"/>
       <use xlink:href="#DejaVuSans-5f" transform="translate(412.841797 0)"/>
       <use xlink:href="#DejaVuSans-55" transform="translate(462.841797 0)"/>
       <use xlink:href="#DejaVuSans-6e" transform="translate(536.035156 0)"/>
       <use xlink:href="#DejaVuSans-65" transform="translate(599.414062 0)"/>
       <use xlink:href="#DejaVuSans-76" transform="translate(660.9375 0)"/>
       <use xlink:href="#DejaVuSans-65" transform="translate(720.117188 0)"/>
       <use xlink:href="#DejaVuSans-6e" transform="translate(781.640625 0)"/>
       <use xlink:href="#DejaVuSans-5f" transform="translate(845.019531 0)"/>
       <use xlink:href="#DejaVuSans-52" transform="translate(895.019531 0)"/>
       <use xlink:href="#DejaVuSans-65" transform="translate(960.001953 0)"/>
       <use xlink:href="#DejaVuSans-70" transform="translate(1021.525391 0)"/>
       <use xlink:href="#DejaVuSans-6c" transform="translate(1085.001953 0)"/>
       <use xlink:href="#DejaVuSans-69" transform="translate(1112.785156 0)"/>
       <use xlink:href="#DejaVuSans-5f" transform="translate(1140.568359 0)"/>
       <use xlink:href="#DejaVuSans-41" transform="translate(1190.568359 0)"/>
       <use xlink:href="#DejaVuSans-63" transform="translate(1257.226562 0)"/>
       <use xlink:href="#DejaVuSans-74" transform="translate(1312.207031 0)"/>
       <use xlink:href="#DejaVuSans-5f" transform="translate(1351.416016 0)"/>
       <use xlink:href="#DejaVuSans-32" transform="translate(1401.416016 0)"/>
       <use xlink:href="#DejaVuSans-30" transform="translate(1465.039062 0)"/>
      </g>
     </g>
    </g>
   </g>
   <g id="matplotlib.axis_2">
    <g id="ytick_1">
     <g id="line2d_7">
      <defs>
       <path id="ma7e7892aba" d="M 0 0 
L -3.5 0 
" style="stroke: #000000; stroke-width: 0.8"/>
      </defs>
      <g>
       <use xlink:href="#ma7e7892aba" x="69.77" y="548.01875" style="stroke: #000000; stroke-width: 0.8"/>
      </g>
     </g>
     <g id="text_7">
      <!-- 0 -->
      <g transform="translate(56.4075 551.817969) scale(0.1 -0.1)">
       <use xlink:href="#DejaVuSans-30"/>
      </g>
     </g>
    </g>
    <g id="ytick_2">
     <g id="line2d_8">
      <g>
       <use xlink:href="#ma7e7892aba" x="69.77" y="437.212912" style="stroke: #000000; stroke-width: 0.8"/>
      </g>
     </g>
     <g id="text_8">
      <!-- 200000 -->
      <g transform="translate(24.595 441.01213) scale(0.1 -0.1)">
       <use xlink:href="#DejaVuSans-32"/>
       <use xlink:href="#DejaVuSans-30" transform="translate(63.623047 0)"/>
       <use xlink:href="#DejaVuSans-30" transform="translate(127.246094 0)"/>
       <use xlink:href="#DejaVuSans-30" transform="translate(190.869141 0)"/>
       <use xlink:href="#DejaVuSans-30" transform="translate(254.492188 0)"/>
       <use xlink:href="#DejaVuSans-30" transform="translate(318.115234 0)"/>
      </g>
     </g>
    </g>
    <g id="ytick_3">
     <g id="line2d_9">
      <g>
       <use xlink:href="#ma7e7892aba" x="69.77" y="326.407073" style="stroke: #000000; stroke-width: 0.8"/>
      </g>
     </g>
     <g id="text_9">
      <!-- 400000 -->
      <g transform="translate(24.595 330.206292) scale(0.1 -0.1)">
       <use xlink:href="#DejaVuSans-34"/>
       <use xlink:href="#DejaVuSans-30" transform="translate(63.623047 0)"/>
       <use xlink:href="#DejaVuSans-30" transform="translate(127.246094 0)"/>
       <use xlink:href="#DejaVuSans-30" transform="translate(190.869141 0)"/>
       <use xlink:href="#DejaVuSans-30" transform="translate(254.492188 0)"/>
       <use xlink:href="#DejaVuSans-30" transform="translate(318.115234 0)"/>
      </g>
     </g>
    </g>
    <g id="ytick_4">
     <g id="line2d_10">
      <g>
       <use xlink:href="#ma7e7892aba" x="69.77" y="215.601235" style="stroke: #000000; stroke-width: 0.8"/>
      </g>
     </g>
     <g id="text_10">
      <!-- 600000 -->
      <g transform="translate(24.595 219.400454) scale(0.1 -0.1)">
       <use xlink:href="#DejaVuSans-36"/>
       <use xlink:href="#DejaVuSans-30" transform="translate(63.623047 0)"/>
       <use xlink:href="#DejaVuSans-30" transform="translate(127.246094 0)"/>
       <use xlink:href="#DejaVuSans-30" transform="translate(190.869141 0)"/>
       <use xlink:href="#DejaVuSans-30" transform="translate(254.492188 0)"/>
       <use xlink:href="#DejaVuSans-30" transform="translate(318.115234 0)"/>
      </g>
     </g>
    </g>
    <g id="ytick_5">
     <g id="line2d_11">
      <g>
       <use xlink:href="#ma7e7892aba" x="69.77" y="104.795397" style="stroke: #000000; stroke-width: 0.8"/>
      </g>
     </g>
     <g id="text_11">
      <!-- 800000 -->
      <g transform="translate(24.595 108.594615) scale(0.1 -0.1)">
       <use xlink:href="#DejaVuSans-38"/>
       <use xlink:href="#DejaVuSans-30" transform="translate(63.623047 0)"/>
       <use xlink:href="#DejaVuSans-30" transform="translate(127.246094 0)"/>
       <use xlink:href="#DejaVuSans-30" transform="translate(190.869141 0)"/>
       <use xlink:href="#DejaVuSans-30" transform="translate(254.492188 0)"/>
       <use xlink:href="#DejaVuSans-30" transform="translate(318.115234 0)"/>
      </g>
     </g>
    </g>
    <g id="text_12">
     <!-- Num of Token Copies -->
     <g transform="translate(18.515312 339.83375) rotate(-90) scale(0.1 -0.1)">
      <defs>
       <path id="DejaVuSans-4e" d="M 628 4666 
L 1478 4666 
L 3547 763 
L 3547 4666 
L 4159 4666 
L 4159 0 
L 3309 0 
L 1241 3903 
L 1241 0 
L 628 0 
L 628 4666 
z
" transform="scale(0.015625)"/>
       <path id="DejaVuSans-75" d="M 544 1381 
L 544 3500 
L 1119 3500 
L 1119 1403 
Q 1119 906 1312 657 
Q 1506 409 1894 409 
Q 2359 409 2629 706 
Q 2900 1003 2900 1516 
L 2900 3500 
L 3475 3500 
L 3475 0 
L 2900 0 
L 2900 538 
Q 2691 219 2414 64 
Q 2138 -91 1772 -91 
Q 1169 -91 856 284 
Q 544 659 544 1381 
z
M 1991 3584 
L 1991 3584 
z
" transform="scale(0.015625)"/>
       <path id="DejaVuSans-6d" d="M 3328 2828 
Q 3544 3216 3844 3400 
Q 4144 3584 4550 3584 
Q 5097 3584 5394 3201 
Q 5691 2819 5691 2113 
L 5691 0 
L 5113 0 
L 5113 2094 
Q 5113 2597 4934 2840 
Q 4756 3084 4391 3084 
Q 3944 3084 3684 2787 
Q 3425 2491 3425 1978 
L 3425 0 
L 2847 0 
L 2847 2094 
Q 2847 2600 2669 2842 
Q 2491 3084 2119 3084 
Q 1678 3084 1418 2786 
Q 1159 2488 1159 1978 
L 1159 0 
L 581 0 
L 581 3500 
L 1159 3500 
L 1159 2956 
Q 1356 3278 1631 3431 
Q 1906 3584 2284 3584 
Q 2666 3584 2933 3390 
Q 3200 3197 3328 2828 
z
" transform="scale(0.015625)"/>
       <path id="DejaVuSans-20" transform="scale(0.015625)"/>
       <path id="DejaVuSans-6f" d="M 1959 3097 
Q 1497 3097 1228 2736 
Q 959 2375 959 1747 
Q 959 1119 1226 758 
Q 1494 397 1959 397 
Q 2419 397 2687 759 
Q 2956 1122 2956 1747 
Q 2956 2369 2687 2733 
Q 2419 3097 1959 3097 
z
M 1959 3584 
Q 2709 3584 3137 3096 
Q 3566 2609 3566 1747 
Q 3566 888 3137 398 
Q 2709 -91 1959 -91 
Q 1206 -91 779 398 
Q 353 888 353 1747 
Q 353 2609 779 3096 
Q 1206 3584 1959 3584 
z
" transform="scale(0.015625)"/>
       <path id="DejaVuSans-66" d="M 2375 4863 
L 2375 4384 
L 1825 4384 
Q 1516 4384 1395 4259 
Q 1275 4134 1275 3809 
L 1275 3500 
L 2222 3500 
L 2222 3053 
L 1275 3053 
L 1275 0 
L 697 0 
L 697 3053 
L 147 3053 
L 147 3500 
L 697 3500 
L 697 3744 
Q 697 4328 969 4595 
Q 1241 4863 1831 4863 
L 2375 4863 
z
" transform="scale(0.015625)"/>
       <path id="DejaVuSans-54" d="M -19 4666 
L 3928 4666 
L 3928 4134 
L 2272 4134 
L 2272 0 
L 1638 0 
L 1638 4134 
L -19 4134 
L -19 4666 
z
" transform="scale(0.015625)"/>
       <path id="DejaVuSans-6b" d="M 581 4863 
L 1159 4863 
L 1159 1991 
L 2875 3500 
L 3609 3500 
L 1753 1863 
L 3688 0 
L 2938 0 
L 1159 1709 
L 1159 0 
L 581 0 
L 581 4863 
z
" transform="scale(0.015625)"/>
       <path id="DejaVuSans-43" d="M 4122 4306 
L 4122 3641 
Q 3803 3938 3442 4084 
Q 3081 4231 2675 4231 
Q 1875 4231 1450 3742 
Q 1025 3253 1025 2328 
Q 1025 1406 1450 917 
Q 1875 428 2675 428 
Q 3081 428 3442 575 
Q 3803 722 4122 1019 
L 4122 359 
Q 3791 134 3420 21 
Q 3050 -91 2638 -91 
Q 1578 -91 968 557 
Q 359 1206 359 2328 
Q 359 3453 968 4101 
Q 1578 4750 2638 4750 
Q 3056 4750 3426 4639 
Q 3797 4528 4122 4306 
z
" transform="scale(0.015625)"/>
       <path id="DejaVuSans-73" d="M 2834 3397 
L 2834 2853 
Q 2591 2978 2328 3040 
Q 2066 3103 1784 3103 
Q 1356 3103 1142 2972 
Q 928 2841 928 2578 
Q 928 2378 1081 2264 
Q 1234 2150 1697 2047 
L 1894 2003 
Q 2506 1872 2764 1633 
Q 3022 1394 3022 966 
Q 3022 478 2636 193 
Q 2250 -91 1575 -91 
Q 1294 -91 989 -36 
Q 684 19 347 128 
L 347 722 
Q 666 556 975 473 
Q 1284 391 1588 391 
Q 1994 391 2212 530 
Q 2431 669 2431 922 
Q 2431 1156 2273 1281 
Q 2116 1406 1581 1522 
L 1381 1569 
Q 847 1681 609 1914 
Q 372 2147 372 2553 
Q 372 3047 722 3315 
Q 1072 3584 1716 3584 
Q 2034 3584 2315 3537 
Q 2597 3491 2834 3397 
z
" transform="scale(0.015625)"/>
      </defs>
      <use xlink:href="#DejaVuSans-4e"/>
      <use xlink:href="#DejaVuSans-75" transform="translate(74.804688 0)"/>
      <use xlink:href="#DejaVuSans-6d" transform="translate(138.183594 0)"/>
      <use xlink:href="#DejaVuSans-20" transform="translate(235.595703 0)"/>
      <use xlink:href="#DejaVuSans-6f" transform="translate(267.382812 0)"/>
      <use xlink:href="#DejaVuSans-66" transform="translate(328.564453 0)"/>
      <use xlink:href="#DejaVuSans-20" transform="translate(363.769531 0)"/>
      <use xlink:href="#DejaVuSans-54" transform="translate(395.556641 0)"/>
      <use xlink:href="#DejaVuSans-6f" transform="translate(439.640625 0)"/>
      <use xlink:href="#DejaVuSans-6b" transform="translate(500.822266 0)"/>
      <use xlink:href="#DejaVuSans-65" transform="translate(555.107422 0)"/>
      <use xlink:href="#DejaVuSans-6e" transform="translate(616.630859 0)"/>
      <use xlink:href="#DejaVuSans-20" transform="translate(680.009766 0)"/>
      <use xlink:href="#DejaVuSans-43" transform="translate(711.796875 0)"/>
      <use xlink:href="#DejaVuSans-6f" transform="translate(781.621094 0)"/>
      <use xlink:href="#DejaVuSans-70" transform="translate(842.802734 0)"/>
      <use xlink:href="#DejaVuSans-69" transform="translate(906.279297 0)"/>
      <use xlink:href="#DejaVuSans-65" transform="translate(934.0625 0)"/>
      <use xlink:href="#DejaVuSans-73" transform="translate(995.585938 0)"/>
     </g>
    </g>
   </g>
   <g id="patch_15">
    <path d="M 69.77 548.01875 
L 69.77 26.88 
" style="fill: none; stroke: #000000; stroke-width: 0.8; stroke-linejoin: miter; stroke-linecap: square"/>
   </g>
   <g id="patch_16">
    <path d="M 1586.14 548.01875 
L 1586.14 26.88 
" style="fill: none; stroke: #000000; stroke-width: 0.8; stroke-linejoin: miter; stroke-linecap: square"/>
   </g>
   <g id="patch_17">
    <path d="M 69.77 548.01875 
L 1586.14 548.01875 
" style="fill: none; stroke: #000000; stroke-width: 0.8; stroke-linejoin: miter; stroke-linecap: square"/>
   </g>
   <g id="patch_18">
    <path d="M 69.77 26.88 
L 1586.14 26.88 
" style="fill: none; stroke: #000000; stroke-width: 0.8; stroke-linejoin: miter; stroke-linecap: square"/>
   </g>
   <g id="text_13">
    <!-- 448186 -->
    <g transform="translate(160.350503 292.265783) scale(0.08 -0.08)">
     <use xlink:href="#DejaVuSans-34"/>
     <use xlink:href="#DejaVuSans-34" transform="translate(63.623047 0)"/>
     <use xlink:href="#DejaVuSans-38" transform="translate(127.246094 0)"/>
     <use xlink:href="#DejaVuSans-31" transform="translate(190.869141 0)"/>
     <use xlink:href="#DejaVuSans-38" transform="translate(254.492188 0)"/>
     <use xlink:href="#DejaVuSans-36" transform="translate(318.115234 0)"/>
    </g>
   </g>
   <g id="text_14">
    <!-- 895842 -->
    <g transform="translate(234.199692 44.251292) scale(0.08 -0.08)">
     <defs>
      <path id="DejaVuSans-39" d="M 703 97 
L 703 672 
Q 941 559 1184 500 
Q 1428 441 1663 441 
Q 2288 441 2617 861 
Q 2947 1281 2994 2138 
Q 2813 1869 2534 1725 
Q 2256 1581 1919 1581 
Q 1219 1581 811 2004 
Q 403 2428 403 3163 
Q 403 3881 828 4315 
Q 1253 4750 1959 4750 
Q 2769 4750 3195 4129 
Q 3622 3509 3622 2328 
Q 3622 1225 3098 567 
Q 2575 -91 1691 -91 
Q 1453 -91 1209 -44 
Q 966 3 703 97 
z
M 1959 2075 
Q 2384 2075 2632 2365 
Q 2881 2656 2881 3163 
Q 2881 3666 2632 3958 
Q 2384 4250 1959 4250 
Q 1534 4250 1286 3958 
Q 1038 3666 1038 3163 
Q 1038 2656 1286 2365 
Q 1534 2075 1959 2075 
z
" transform="scale(0.015625)"/>
      <path id="DejaVuSans-35" d="M 691 4666 
L 3169 4666 
L 3169 4134 
L 1269 4134 
L 1269 2991 
Q 1406 3038 1543 3061 
Q 1681 3084 1819 3084 
Q 2600 3084 3056 2656 
Q 3513 2228 3513 1497 
Q 3513 744 3044 326 
Q 2575 -91 1722 -91 
Q 1428 -91 1123 -41 
Q 819 9 494 109 
L 494 744 
Q 775 591 1075 516 
Q 1375 441 1709 441 
Q 2250 441 2565 725 
Q 2881 1009 2881 1497 
Q 2881 1984 2565 2268 
Q 2250 2553 1709 2553 
Q 1456 2553 1204 2497 
Q 953 2441 691 2322 
L 691 4666 
z
" transform="scale(0.015625)"/>
     </defs>
     <use xlink:href="#DejaVuSans-38"/>
     <use xlink:href="#DejaVuSans-39" transform="translate(63.623047 0)"/>
     <use xlink:href="#DejaVuSans-35" transform="translate(127.246094 0)"/>
     <use xlink:href="#DejaVuSans-38" transform="translate(190.869141 0)"/>
     <use xlink:href="#DejaVuSans-34" transform="translate(254.492188 0)"/>
     <use xlink:href="#DejaVuSans-32" transform="translate(318.115234 0)"/>
    </g>
   </g>
   <g id="text_15">
    <!-- 242916 -->
    <g transform="translate(406.514464 405.991356) scale(0.08 -0.08)">
     <use xlink:href="#DejaVuSans-32"/>
     <use xlink:href="#DejaVuSans-34" transform="translate(63.623047 0)"/>
     <use xlink:href="#DejaVuSans-32" transform="translate(127.246094 0)"/>
     <use xlink:href="#DejaVuSans-39" transform="translate(190.869141 0)"/>
     <use xlink:href="#DejaVuSans-31" transform="translate(254.492188 0)"/>
     <use xlink:href="#DejaVuSans-36" transform="translate(318.115234 0)"/>
    </g>
   </g>
   <g id="text_16">
    <!-- 490616 -->
    <g transform="translate(480.363653 268.758325) scale(0.08 -0.08)">
     <use xlink:href="#DejaVuSans-34"/>
     <use xlink:href="#DejaVuSans-39" transform="translate(63.623047 0)"/>
     <use xlink:href="#DejaVuSans-30" transform="translate(127.246094 0)"/>
     <use xlink:href="#DejaVuSans-36" transform="translate(190.869141 0)"/>
     <use xlink:href="#DejaVuSans-31" transform="translate(254.492188 0)"/>
     <use xlink:href="#DejaVuSans-36" transform="translate(318.115234 0)"/>
    </g>
   </g>
   <g id="text_17">
    <!-- 231303 -->
    <g transform="translate(652.678425 412.425297) scale(0.08 -0.08)">
     <defs>
      <path id="DejaVuSans-33" d="M 2597 2516 
Q 3050 2419 3304 2112 
Q 3559 1806 3559 1356 
Q 3559 666 3084 287 
Q 2609 -91 1734 -91 
Q 1441 -91 1130 -33 
Q 819 25 488 141 
L 488 750 
Q 750 597 1062 519 
Q 1375 441 1716 441 
Q 2309 441 2620 675 
Q 2931 909 2931 1356 
Q 2931 1769 2642 2001 
Q 2353 2234 1838 2234 
L 1294 2234 
L 1294 2753 
L 1863 2753 
Q 2328 2753 2575 2939 
Q 2822 3125 2822 3475 
Q 2822 3834 2567 4026 
Q 2313 4219 1838 4219 
Q 1578 4219 1281 4162 
Q 984 4106 628 3988 
L 628 4550 
Q 988 4650 1302 4700 
Q 1616 4750 1894 4750 
Q 2613 4750 3031 4423 
Q 3450 4097 3450 3541 
Q 3450 3153 3228 2886 
Q 3006 2619 2597 2516 
z
" transform="scale(0.015625)"/>
     </defs>
     <use xlink:href="#DejaVuSans-32"/>
     <use xlink:href="#DejaVuSans-33" transform="translate(63.623047 0)"/>
     <use xlink:href="#DejaVuSans-31" transform="translate(127.246094 0)"/>
     <use xlink:href="#DejaVuSans-33" transform="translate(190.869141 0)"/>
     <use xlink:href="#DejaVuSans-30" transform="translate(254.492188 0)"/>
     <use xlink:href="#DejaVuSans-33" transform="translate(318.115234 0)"/>
    </g>
   </g>
   <g id="text_18">
    <!-- 466074 -->
    <g transform="translate(726.527614 282.355309) scale(0.08 -0.08)">
     <defs>
      <path id="DejaVuSans-37" d="M 525 4666 
L 3525 4666 
L 3525 4397 
L 1831 0 
L 1172 0 
L 2766 4134 
L 525 4134 
L 525 4666 
z
" transform="scale(0.015625)"/>
     </defs>
     <use xlink:href="#DejaVuSans-34"/>
     <use xlink:href="#DejaVuSans-36" transform="translate(63.623047 0)"/>
     <use xlink:href="#DejaVuSans-36" transform="translate(127.246094 0)"/>
     <use xlink:href="#DejaVuSans-30" transform="translate(190.869141 0)"/>
     <use xlink:href="#DejaVuSans-37" transform="translate(254.492188 0)"/>
     <use xlink:href="#DejaVuSans-34" transform="translate(318.115234 0)"/>
    </g>
   </g>
   <g id="text_19">
    <!-- 222652 -->
    <g transform="translate(898.842386 417.218203) scale(0.08 -0.08)">
     <use xlink:href="#DejaVuSans-32"/>
     <use xlink:href="#DejaVuSans-32" transform="translate(63.623047 0)"/>
     <use xlink:href="#DejaVuSans-32" transform="translate(127.246094 0)"/>
     <use xlink:href="#DejaVuSans-36" transform="translate(190.869141 0)"/>
     <use xlink:href="#DejaVuSans-35" transform="translate(254.492188 0)"/>
     <use xlink:href="#DejaVuSans-32" transform="translate(318.115234 0)"/>
    </g>
   </g>
   <g id="text_20">
    <!-- 444955 -->
    <g transform="translate(972.691575 294.055852) scale(0.08 -0.08)">
     <use xlink:href="#DejaVuSans-34"/>
     <use xlink:href="#DejaVuSans-34" transform="translate(63.623047 0)"/>
     <use xlink:href="#DejaVuSans-34" transform="translate(127.246094 0)"/>
     <use xlink:href="#DejaVuSans-39" transform="translate(190.869141 0)"/>
     <use xlink:href="#DejaVuSans-35" transform="translate(254.492188 0)"/>
     <use xlink:href="#DejaVuSans-35" transform="translate(318.115234 0)"/>
    </g>
   </g>
   <g id="text_21">
    <!-- 210046 -->
    <g transform="translate(1145.006347 424.202295) scale(0.08 -0.08)">
     <use xlink:href="#DejaVuSans-32"/>
     <use xlink:href="#DejaVuSans-31" transform="translate(63.623047 0)"/>
     <use xlink:href="#DejaVuSans-30" transform="translate(127.246094 0)"/>
     <use xlink:href="#DejaVuSans-30" transform="translate(190.869141 0)"/>
     <use xlink:href="#DejaVuSans-34" transform="translate(254.492188 0)"/>
     <use xlink:href="#DejaVuSans-36" transform="translate(318.115234 0)"/>
    </g>
   </g>
   <g id="text_22">
    <!-- 418363 -->
    <g transform="translate(1218.855536 308.788596) scale(0.08 -0.08)">
     <use xlink:href="#DejaVuSans-34"/>
     <use xlink:href="#DejaVuSans-31" transform="translate(63.623047 0)"/>
     <use xlink:href="#DejaVuSans-38" transform="translate(127.246094 0)"/>
     <use xlink:href="#DejaVuSans-33" transform="translate(190.869141 0)"/>
     <use xlink:href="#DejaVuSans-36" transform="translate(254.492188 0)"/>
     <use xlink:href="#DejaVuSans-33" transform="translate(318.115234 0)"/>
    </g>
   </g>
   <g id="text_23">
    <!-- 191623 -->
    <g transform="translate(1391.170308 434.409175) scale(0.08 -0.08)">
     <use xlink:href="#DejaVuSans-31"/>
     <use xlink:href="#DejaVuSans-39" transform="translate(63.623047 0)"/>
     <use xlink:href="#DejaVuSans-31" transform="translate(127.246094 0)"/>
     <use xlink:href="#DejaVuSans-36" transform="translate(190.869141 0)"/>
     <use xlink:href="#DejaVuSans-32" transform="translate(254.492188 0)"/>
     <use xlink:href="#DejaVuSans-33" transform="translate(318.115234 0)"/>
    </g>
   </g>
   <g id="text_24">
    <!-- 381776 -->
    <g transform="translate(1465.019497 329.058862) scale(0.08 -0.08)">
     <use xlink:href="#DejaVuSans-33"/>
     <use xlink:href="#DejaVuSans-38" transform="translate(63.623047 0)"/>
     <use xlink:href="#DejaVuSans-31" transform="translate(127.246094 0)"/>
     <use xlink:href="#DejaVuSans-37" transform="translate(190.869141 0)"/>
     <use xlink:href="#DejaVuSans-37" transform="translate(254.492188 0)"/>
     <use xlink:href="#DejaVuSans-36" transform="translate(318.115234 0)"/>
    </g>
   </g>
   <g id="legend_1">
    <g id="patch_19">
     <path d="M 76.77 108.270625 
L 198.0825 108.270625 
Q 200.0825 108.270625 200.0825 106.270625 
L 200.0825 33.88 
Q 200.0825 31.88 198.0825 31.88 
L 76.77 31.88 
Q 74.77 31.88 74.77 33.88 
L 74.77 106.270625 
Q 74.77 108.270625 76.77 108.270625 
z
" style="fill: #ffffff; opacity: 0.8; stroke: #cccccc; stroke-linejoin: miter"/>
    </g>
    <g id="patch_20">
     <path d="M 78.77 43.478438 
L 98.77 43.478438 
L 98.77 36.478438 
L 78.77 36.478438 
z
" style="fill: #7fcdbb"/>
    </g>
    <g id="text_25">
     <!-- Inter-GPU Copies -->
     <g transform="translate(106.77 43.478438) scale(0.1 -0.1)">
      <defs>
       <path id="DejaVuSans-49" d="M 628 4666 
L 1259 4666 
L 1259 0 
L 628 0 
L 628 4666 
z
" transform="scale(0.015625)"/>
       <path id="DejaVuSans-2d" d="M 313 2009 
L 1997 2009 
L 1997 1497 
L 313 1497 
L 313 2009 
z
" transform="scale(0.015625)"/>
       <path id="DejaVuSans-47" d="M 3809 666 
L 3809 1919 
L 2778 1919 
L 2778 2438 
L 4434 2438 
L 4434 434 
Q 4069 175 3628 42 
Q 3188 -91 2688 -91 
Q 1594 -91 976 548 
Q 359 1188 359 2328 
Q 359 3472 976 4111 
Q 1594 4750 2688 4750 
Q 3144 4750 3555 4637 
Q 3966 4525 4313 4306 
L 4313 3634 
Q 3963 3931 3569 4081 
Q 3175 4231 2741 4231 
Q 1884 4231 1454 3753 
Q 1025 3275 1025 2328 
Q 1025 1384 1454 906 
Q 1884 428 2741 428 
Q 3075 428 3337 486 
Q 3600 544 3809 666 
z
" transform="scale(0.015625)"/>
       <path id="DejaVuSans-50" d="M 1259 4147 
L 1259 2394 
L 2053 2394 
Q 2494 2394 2734 2622 
Q 2975 2850 2975 3272 
Q 2975 3691 2734 3919 
Q 2494 4147 2053 4147 
L 1259 4147 
z
M 628 4666 
L 2053 4666 
Q 2838 4666 3239 4311 
Q 3641 3956 3641 3272 
Q 3641 2581 3239 2228 
Q 2838 1875 2053 1875 
L 1259 1875 
L 1259 0 
L 628 0 
L 628 4666 
z
" transform="scale(0.015625)"/>
      </defs>
      <use xlink:href="#DejaVuSans-49"/>
      <use xlink:href="#DejaVuSans-6e" transform="translate(29.492188 0)"/>
      <use xlink:href="#DejaVuSans-74" transform="translate(92.871094 0)"/>
      <use xlink:href="#DejaVuSans-65" transform="translate(132.080078 0)"/>
      <use xlink:href="#DejaVuSans-72" transform="translate(193.603516 0)"/>
      <use xlink:href="#DejaVuSans-2d" transform="translate(228.341797 0)"/>
      <use xlink:href="#DejaVuSans-47" transform="translate(268.050781 0)"/>
      <use xlink:href="#DejaVuSans-50" transform="translate(345.541016 0)"/>
      <use xlink:href="#DejaVuSans-55" transform="translate(405.84375 0)"/>
      <use xlink:href="#DejaVuSans-20" transform="translate(479.037109 0)"/>
      <use xlink:href="#DejaVuSans-43" transform="translate(510.824219 0)"/>
      <use xlink:href="#DejaVuSans-6f" transform="translate(580.648438 0)"/>
      <use xlink:href="#DejaVuSans-70" transform="translate(641.830078 0)"/>
      <use xlink:href="#DejaVuSans-69" transform="translate(705.306641 0)"/>
      <use xlink:href="#DejaVuSans-65" transform="translate(733.089844 0)"/>
      <use xlink:href="#DejaVuSans-73" transform="translate(794.613281 0)"/>
     </g>
    </g>
    <g id="patch_21">
     <path d="M 78.77 58.156563 
L 98.77 58.156563 
L 98.77 51.156563 
L 78.77 51.156563 
z
" style="fill: #41b6c4"/>
    </g>
    <g id="text_26">
     <!-- Inter-Node Copies -->
     <g transform="translate(106.77 58.156563) scale(0.1 -0.1)">
      <defs>
       <path id="DejaVuSans-64" d="M 2906 2969 
L 2906 4863 
L 3481 4863 
L 3481 0 
L 2906 0 
L 2906 525 
Q 2725 213 2448 61 
Q 2172 -91 1784 -91 
Q 1150 -91 751 415 
Q 353 922 353 1747 
Q 353 2572 751 3078 
Q 1150 3584 1784 3584 
Q 2172 3584 2448 3432 
Q 2725 3281 2906 2969 
z
M 947 1747 
Q 947 1113 1208 752 
Q 1469 391 1925 391 
Q 2381 391 2643 752 
Q 2906 1113 2906 1747 
Q 2906 2381 2643 2742 
Q 2381 3103 1925 3103 
Q 1469 3103 1208 2742 
Q 947 2381 947 1747 
z
" transform="scale(0.015625)"/>
      </defs>
      <use xlink:href="#DejaVuSans-49"/>
      <use xlink:href="#DejaVuSans-6e" transform="translate(29.492188 0)"/>
      <use xlink:href="#DejaVuSans-74" transform="translate(92.871094 0)"/>
      <use xlink:href="#DejaVuSans-65" transform="translate(132.080078 0)"/>
      <use xlink:href="#DejaVuSans-72" transform="translate(193.603516 0)"/>
      <use xlink:href="#DejaVuSans-2d" transform="translate(228.341797 0)"/>
      <use xlink:href="#DejaVuSans-4e" transform="translate(264.425781 0)"/>
      <use xlink:href="#DejaVuSans-6f" transform="translate(339.230469 0)"/>
      <use xlink:href="#DejaVuSans-64" transform="translate(400.412109 0)"/>
      <use xlink:href="#DejaVuSans-65" transform="translate(463.888672 0)"/>
      <use xlink:href="#DejaVuSans-20" transform="translate(525.412109 0)"/>
      <use xlink:href="#DejaVuSans-43" transform="translate(557.199219 0)"/>
      <use xlink:href="#DejaVuSans-6f" transform="translate(627.023438 0)"/>
      <use xlink:href="#DejaVuSans-70" transform="translate(688.205078 0)"/>
      <use xlink:href="#DejaVuSans-69" transform="translate(751.681641 0)"/>
      <use xlink:href="#DejaVuSans-65" transform="translate(779.464844 0)"/>
      <use xlink:href="#DejaVuSans-73" transform="translate(840.988281 0)"/>
     </g>
    </g>
    <g id="line2d_12">
     <path d="M 78.77 69.334688 
L 88.77 69.334688 
L 98.77 69.334688 
" style="fill: none; stroke: #225ea8; stroke-width: 2; stroke-linecap: square"/>
     <defs>
      <path id="mddd63a25f3" d="M 0 3 
C 0.795609 3 1.55874 2.683901 2.12132 2.12132 
C 2.683901 1.55874 3 0.795609 3 0 
C 3 -0.795609 2.683901 -1.55874 2.12132 -2.12132 
C 1.55874 -2.683901 0.795609 -3 0 -3 
C -0.795609 -3 -1.55874 -2.683901 -2.12132 -2.12132 
C -2.683901 -1.55874 -3 -0.795609 -3 0 
C -3 0.795609 -2.683901 1.55874 -2.12132 2.12132 
C -1.55874 2.683901 -0.795609 3 0 3 
z
" style="stroke: #225ea8"/>
     </defs>
     <g>
      <use xlink:href="#mddd63a25f3" x="88.77" y="69.334688" style="fill: #225ea8; stroke: #225ea8"/>
     </g>
    </g>
    <g id="text_27">
     <!-- Avg. load Std -->
     <g transform="translate(106.77 72.834688) scale(0.1 -0.1)">
      <defs>
       <path id="DejaVuSans-67" d="M 2906 1791 
Q 2906 2416 2648 2759 
Q 2391 3103 1925 3103 
Q 1463 3103 1205 2759 
Q 947 2416 947 1791 
Q 947 1169 1205 825 
Q 1463 481 1925 481 
Q 2391 481 2648 825 
Q 2906 1169 2906 1791 
z
M 3481 434 
Q 3481 -459 3084 -895 
Q 2688 -1331 1869 -1331 
Q 1566 -1331 1297 -1286 
Q 1028 -1241 775 -1147 
L 775 -588 
Q 1028 -725 1275 -790 
Q 1522 -856 1778 -856 
Q 2344 -856 2625 -561 
Q 2906 -266 2906 331 
L 2906 616 
Q 2728 306 2450 153 
Q 2172 0 1784 0 
Q 1141 0 747 490 
Q 353 981 353 1791 
Q 353 2603 747 3093 
Q 1141 3584 1784 3584 
Q 2172 3584 2450 3431 
Q 2728 3278 2906 2969 
L 2906 3500 
L 3481 3500 
L 3481 434 
z
" transform="scale(0.015625)"/>
       <path id="DejaVuSans-2e" d="M 684 794 
L 1344 794 
L 1344 0 
L 684 0 
L 684 794 
z
" transform="scale(0.015625)"/>
      </defs>
      <use xlink:href="#DejaVuSans-41"/>
      <use xlink:href="#DejaVuSans-76" transform="translate(62.533203 0)"/>
      <use xlink:href="#DejaVuSans-67" transform="translate(121.712891 0)"/>
      <use xlink:href="#DejaVuSans-2e" transform="translate(185.189453 0)"/>
      <use xlink:href="#DejaVuSans-20" transform="translate(216.976562 0)"/>
      <use xlink:href="#DejaVuSans-6c" transform="translate(248.763672 0)"/>
      <use xlink:href="#DejaVuSans-6f" transform="translate(276.546875 0)"/>
      <use xlink:href="#DejaVuSans-61" transform="translate(337.728516 0)"/>
      <use xlink:href="#DejaVuSans-64" transform="translate(399.007812 0)"/>
      <use xlink:href="#DejaVuSans-20" transform="translate(462.484375 0)"/>
      <use xlink:href="#DejaVuSans-53" transform="translate(494.271484 0)"/>
      <use xlink:href="#DejaVuSans-74" transform="translate(557.748047 0)"/>
      <use xlink:href="#DejaVuSans-64" transform="translate(596.957031 0)"/>
     </g>
    </g>
    <g id="line2d_13">
     <path d="M 78.77 84.012813 
L 88.77 84.012813 
L 98.77 84.012813 
" style="fill: none; stroke-dasharray: 7.4,3.2; stroke-dashoffset: 0; stroke: #1d91c0; stroke-width: 2"/>
     <defs>
      <path id="m91bd4a8813" d="M 0 -3 
L -3 3 
L 3 3 
z
" style="stroke: #1d91c0; stroke-linejoin: miter"/>
     </defs>
     <g>
      <use xlink:href="#m91bd4a8813" x="88.77" y="84.012813" style="fill: #1d91c0; stroke: #1d91c0; stroke-linejoin: miter"/>
     </g>
    </g>
    <g id="text_28">
     <!-- Avg. load Max -->
     <g transform="translate(106.77 87.512813) scale(0.1 -0.1)">
      <defs>
       <path id="DejaVuSans-4d" d="M 628 4666 
L 1569 4666 
L 2759 1491 
L 3956 4666 
L 4897 4666 
L 4897 0 
L 4281 0 
L 4281 4097 
L 3078 897 
L 2444 897 
L 1241 4097 
L 1241 0 
L 628 0 
L 628 4666 
z
" transform="scale(0.015625)"/>
       <path id="DejaVuSans-78" d="M 3513 3500 
L 2247 1797 
L 3578 0 
L 2900 0 
L 1881 1375 
L 863 0 
L 184 0 
L 1544 1831 
L 300 3500 
L 978 3500 
L 1906 2253 
L 2834 3500 
L 3513 3500 
z
" transform="scale(0.015625)"/>
      </defs>
      <use xlink:href="#DejaVuSans-41"/>
      <use xlink:href="#DejaVuSans-76" transform="translate(62.533203 0)"/>
      <use xlink:href="#DejaVuSans-67" transform="translate(121.712891 0)"/>
      <use xlink:href="#DejaVuSans-2e" transform="translate(185.189453 0)"/>
      <use xlink:href="#DejaVuSans-20" transform="translate(216.976562 0)"/>
      <use xlink:href="#DejaVuSans-6c" transform="translate(248.763672 0)"/>
      <use xlink:href="#DejaVuSans-6f" transform="translate(276.546875 0)"/>
      <use xlink:href="#DejaVuSans-61" transform="translate(337.728516 0)"/>
      <use xlink:href="#DejaVuSans-64" transform="translate(399.007812 0)"/>
      <use xlink:href="#DejaVuSans-20" transform="translate(462.484375 0)"/>
      <use xlink:href="#DejaVuSans-4d" transform="translate(494.271484 0)"/>
      <use xlink:href="#DejaVuSans-61" transform="translate(580.550781 0)"/>
      <use xlink:href="#DejaVuSans-78" transform="translate(641.830078 0)"/>
     </g>
    </g>
    <g id="line2d_14">
     <path d="M 78.77 98.690938 
L 88.77 98.690938 
L 98.77 98.690938 
" style="fill: none; stroke-dasharray: 7.4,3.2; stroke-dashoffset: 0; stroke: #1d6fc0; stroke-width: 2"/>
     <defs>
      <path id="mef2775b4f4" d="M -3 3 
L 3 3 
L 3 -3 
L -3 -3 
z
" style="stroke: #1d6fc0; stroke-linejoin: miter"/>
     </defs>
     <g>
      <use xlink:href="#mef2775b4f4" x="88.77" y="98.690938" style="fill: #1d6fc0; stroke: #1d6fc0; stroke-linejoin: miter"/>
     </g>
    </g>
    <g id="text_29">
     <!-- Avg. load Min -->
     <g transform="translate(106.77 102.190938) scale(0.1 -0.1)">
      <use xlink:href="#DejaVuSans-41"/>
      <use xlink:href="#DejaVuSans-76" transform="translate(62.533203 0)"/>
      <use xlink:href="#DejaVuSans-67" transform="translate(121.712891 0)"/>
      <use xlink:href="#DejaVuSans-2e" transform="translate(185.189453 0)"/>
      <use xlink:href="#DejaVuSans-20" transform="translate(216.976562 0)"/>
      <use xlink:href="#DejaVuSans-6c" transform="translate(248.763672 0)"/>
      <use xlink:href="#DejaVuSans-6f" transform="translate(276.546875 0)"/>
      <use xlink:href="#DejaVuSans-61" transform="translate(337.728516 0)"/>
      <use xlink:href="#DejaVuSans-64" transform="translate(399.007812 0)"/>
      <use xlink:href="#DejaVuSans-20" transform="translate(462.484375 0)"/>
      <use xlink:href="#DejaVuSans-4d" transform="translate(494.271484 0)"/>
      <use xlink:href="#DejaVuSans-69" transform="translate(580.550781 0)"/>
      <use xlink:href="#DejaVuSans-6e" transform="translate(608.333984 0)"/>
     </g>
    </g>
   </g>
  </g>
  <g id="axes_2">
   <g id="matplotlib.axis_3">
    <g id="ytick_6">
     <g id="line2d_15">
      <defs>
       <path id="m30430f9bdc" d="M 0 0 
L 3.5 0 
" style="stroke: #000000; stroke-width: 0.8"/>
      </defs>
      <g>
       <use xlink:href="#m30430f9bdc" x="1586.14" y="548.01875" style="stroke: #000000; stroke-width: 0.8"/>
      </g>
     </g>
     <g id="text_30">
      <!-- 0 -->
      <g transform="translate(1593.14 551.817969) scale(0.1 -0.1)">
       <use xlink:href="#DejaVuSans-30"/>
      </g>
     </g>
    </g>
    <g id="ytick_7">
     <g id="line2d_16">
      <g>
       <use xlink:href="#m30430f9bdc" x="1586.14" y="488.850372" style="stroke: #000000; stroke-width: 0.8"/>
      </g>
     </g>
     <g id="text_31">
      <!-- 20000 -->
      <g transform="translate(1593.14 492.64959) scale(0.1 -0.1)">
       <use xlink:href="#DejaVuSans-32"/>
       <use xlink:href="#DejaVuSans-30" transform="translate(63.623047 0)"/>
       <use xlink:href="#DejaVuSans-30" transform="translate(127.246094 0)"/>
       <use xlink:href="#DejaVuSans-30" transform="translate(190.869141 0)"/>
       <use xlink:href="#DejaVuSans-30" transform="translate(254.492188 0)"/>
      </g>
     </g>
    </g>
    <g id="ytick_8">
     <g id="line2d_17">
      <g>
       <use xlink:href="#m30430f9bdc" x="1586.14" y="429.681993" style="stroke: #000000; stroke-width: 0.8"/>
      </g>
     </g>
     <g id="text_32">
      <!-- 40000 -->
      <g transform="translate(1593.14 433.481212) scale(0.1 -0.1)">
       <use xlink:href="#DejaVuSans-34"/>
       <use xlink:href="#DejaVuSans-30" transform="translate(63.623047 0)"/>
       <use xlink:href="#DejaVuSans-30" transform="translate(127.246094 0)"/>
       <use xlink:href="#DejaVuSans-30" transform="translate(190.869141 0)"/>
       <use xlink:href="#DejaVuSans-30" transform="translate(254.492188 0)"/>
      </g>
     </g>
    </g>
    <g id="ytick_9">
     <g id="line2d_18">
      <g>
       <use xlink:href="#m30430f9bdc" x="1586.14" y="370.513615" style="stroke: #000000; stroke-width: 0.8"/>
      </g>
     </g>
     <g id="text_33">
      <!-- 60000 -->
      <g transform="translate(1593.14 374.312834) scale(0.1 -0.1)">
       <use xlink:href="#DejaVuSans-36"/>
       <use xlink:href="#DejaVuSans-30" transform="translate(63.623047 0)"/>
       <use xlink:href="#DejaVuSans-30" transform="translate(127.246094 0)"/>
       <use xlink:href="#DejaVuSans-30" transform="translate(190.869141 0)"/>
       <use xlink:href="#DejaVuSans-30" transform="translate(254.492188 0)"/>
      </g>
     </g>
    </g>
    <g id="ytick_10">
     <g id="line2d_19">
      <g>
       <use xlink:href="#m30430f9bdc" x="1586.14" y="311.345236" style="stroke: #000000; stroke-width: 0.8"/>
      </g>
     </g>
     <g id="text_34">
      <!-- 80000 -->
      <g transform="translate(1593.14 315.144455) scale(0.1 -0.1)">
       <use xlink:href="#DejaVuSans-38"/>
       <use xlink:href="#DejaVuSans-30" transform="translate(63.623047 0)"/>
       <use xlink:href="#DejaVuSans-30" transform="translate(127.246094 0)"/>
       <use xlink:href="#DejaVuSans-30" transform="translate(190.869141 0)"/>
       <use xlink:href="#DejaVuSans-30" transform="translate(254.492188 0)"/>
      </g>
     </g>
    </g>
    <g id="ytick_11">
     <g id="line2d_20">
      <g>
       <use xlink:href="#m30430f9bdc" x="1586.14" y="252.176858" style="stroke: #000000; stroke-width: 0.8"/>
      </g>
     </g>
     <g id="text_35">
      <!-- 100000 -->
      <g transform="translate(1593.14 255.976077) scale(0.1 -0.1)">
       <use xlink:href="#DejaVuSans-31"/>
       <use xlink:href="#DejaVuSans-30" transform="translate(63.623047 0)"/>
       <use xlink:href="#DejaVuSans-30" transform="translate(127.246094 0)"/>
       <use xlink:href="#DejaVuSans-30" transform="translate(190.869141 0)"/>
       <use xlink:href="#DejaVuSans-30" transform="translate(254.492188 0)"/>
       <use xlink:href="#DejaVuSans-30" transform="translate(318.115234 0)"/>
      </g>
     </g>
    </g>
    <g id="ytick_12">
     <g id="line2d_21">
      <g>
       <use xlink:href="#m30430f9bdc" x="1586.14" y="193.00848" style="stroke: #000000; stroke-width: 0.8"/>
      </g>
     </g>
     <g id="text_36">
      <!-- 120000 -->
      <g transform="translate(1593.14 196.807698) scale(0.1 -0.1)">
       <use xlink:href="#DejaVuSans-31"/>
       <use xlink:href="#DejaVuSans-32" transform="translate(63.623047 0)"/>
       <use xlink:href="#DejaVuSans-30" transform="translate(127.246094 0)"/>
       <use xlink:href="#DejaVuSans-30" transform="translate(190.869141 0)"/>
       <use xlink:href="#DejaVuSans-30" transform="translate(254.492188 0)"/>
       <use xlink:href="#DejaVuSans-30" transform="translate(318.115234 0)"/>
      </g>
     </g>
    </g>
    <g id="ytick_13">
     <g id="line2d_22">
      <g>
       <use xlink:href="#m30430f9bdc" x="1586.14" y="133.840101" style="stroke: #000000; stroke-width: 0.8"/>
      </g>
     </g>
     <g id="text_37">
      <!-- 140000 -->
      <g transform="translate(1593.14 137.63932) scale(0.1 -0.1)">
       <use xlink:href="#DejaVuSans-31"/>
       <use xlink:href="#DejaVuSans-34" transform="translate(63.623047 0)"/>
       <use xlink:href="#DejaVuSans-30" transform="translate(127.246094 0)"/>
       <use xlink:href="#DejaVuSans-30" transform="translate(190.869141 0)"/>
       <use xlink:href="#DejaVuSans-30" transform="translate(254.492188 0)"/>
       <use xlink:href="#DejaVuSans-30" transform="translate(318.115234 0)"/>
      </g>
     </g>
    </g>
    <g id="ytick_14">
     <g id="line2d_23">
      <g>
       <use xlink:href="#m30430f9bdc" x="1586.14" y="74.671723" style="stroke: #000000; stroke-width: 0.8"/>
      </g>
     </g>
     <g id="text_38">
      <!-- 160000 -->
      <g transform="translate(1593.14 78.470942) scale(0.1 -0.1)">
       <use xlink:href="#DejaVuSans-31"/>
       <use xlink:href="#DejaVuSans-36" transform="translate(63.623047 0)"/>
       <use xlink:href="#DejaVuSans-30" transform="translate(127.246094 0)"/>
       <use xlink:href="#DejaVuSans-30" transform="translate(190.869141 0)"/>
       <use xlink:href="#DejaVuSans-30" transform="translate(254.492188 0)"/>
       <use xlink:href="#DejaVuSans-30" transform="translate(318.115234 0)"/>
      </g>
     </g>
    </g>
    <g id="text_39">
     <!-- Node Load (Avg. Std / Max / Min) -->
     <g transform="translate(1642.913437 369.257187) rotate(-90) scale(0.1 -0.1)">
      <defs>
       <path id="DejaVuSans-4c" d="M 628 4666 
L 1259 4666 
L 1259 531 
L 3531 531 
L 3531 0 
L 628 0 
L 628 4666 
z
" transform="scale(0.015625)"/>
       <path id="DejaVuSans-28" d="M 1984 4856 
Q 1566 4138 1362 3434 
Q 1159 2731 1159 2009 
Q 1159 1288 1364 580 
Q 1569 -128 1984 -844 
L 1484 -844 
Q 1016 -109 783 600 
Q 550 1309 550 2009 
Q 550 2706 781 3412 
Q 1013 4119 1484 4856 
L 1984 4856 
z
" transform="scale(0.015625)"/>
       <path id="DejaVuSans-2f" d="M 1625 4666 
L 2156 4666 
L 531 -594 
L 0 -594 
L 1625 4666 
z
" transform="scale(0.015625)"/>
       <path id="DejaVuSans-29" d="M 513 4856 
L 1013 4856 
Q 1481 4119 1714 3412 
Q 1947 2706 1947 2009 
Q 1947 1309 1714 600 
Q 1481 -109 1013 -844 
L 513 -844 
Q 928 -128 1133 580 
Q 1338 1288 1338 2009 
Q 1338 2731 1133 3434 
Q 928 4138 513 4856 
z
" transform="scale(0.015625)"/>
      </defs>
      <use xlink:href="#DejaVuSans-4e"/>
      <use xlink:href="#DejaVuSans-6f" transform="translate(74.804688 0)"/>
      <use xlink:href="#DejaVuSans-64" transform="translate(135.986328 0)"/>
      <use xlink:href="#DejaVuSans-65" transform="translate(199.462891 0)"/>
      <use xlink:href="#DejaVuSans-20" transform="translate(260.986328 0)"/>
      <use xlink:href="#DejaVuSans-4c" transform="translate(292.773438 0)"/>
      <use xlink:href="#DejaVuSans-6f" transform="translate(346.736328 0)"/>
      <use xlink:href="#DejaVuSans-61" transform="translate(407.917969 0)"/>
      <use xlink:href="#DejaVuSans-64" transform="translate(469.197266 0)"/>
      <use xlink:href="#DejaVuSans-20" transform="translate(532.673828 0)"/>
      <use xlink:href="#DejaVuSans-28" transform="translate(564.460938 0)"/>
      <use xlink:href="#DejaVuSans-41" transform="translate(603.474609 0)"/>
      <use xlink:href="#DejaVuSans-76" transform="translate(666.007812 0)"/>
      <use xlink:href="#DejaVuSans-67" transform="translate(725.1875 0)"/>
      <use xlink:href="#DejaVuSans-2e" transform="translate(788.664062 0)"/>
      <use xlink:href="#DejaVuSans-20" transform="translate(820.451172 0)"/>
      <use xlink:href="#DejaVuSans-53" transform="translate(852.238281 0)"/>
      <use xlink:href="#DejaVuSans-74" transform="translate(915.714844 0)"/>
      <use xlink:href="#DejaVuSans-64" transform="translate(954.923828 0)"/>
      <use xlink:href="#DejaVuSans-20" transform="translate(1018.400391 0)"/>
      <use xlink:href="#DejaVuSans-2f" transform="translate(1050.1875 0)"/>
      <use xlink:href="#DejaVuSans-20" transform="translate(1083.878906 0)"/>
      <use xlink:href="#DejaVuSans-4d" transform="translate(1115.666016 0)"/>
      <use xlink:href="#DejaVuSans-61" transform="translate(1201.945312 0)"/>
      <use xlink:href="#DejaVuSans-78" transform="translate(1263.224609 0)"/>
      <use xlink:href="#DejaVuSans-20" transform="translate(1322.404297 0)"/>
      <use xlink:href="#DejaVuSans-2f" transform="translate(1354.191406 0)"/>
      <use xlink:href="#DejaVuSans-20" transform="translate(1387.882812 0)"/>
      <use xlink:href="#DejaVuSans-4d" transform="translate(1419.669922 0)"/>
      <use xlink:href="#DejaVuSans-69" transform="translate(1505.949219 0)"/>
      <use xlink:href="#DejaVuSans-6e" transform="translate(1533.732422 0)"/>
      <use xlink:href="#DejaVuSans-29" transform="translate(1597.111328 0)"/>
     </g>
    </g>
   </g>
   <g id="line2d_24">
    <path d="M 212.545097 504.154273 
L 458.709058 436.272056 
L 704.873019 437.186208 
L 951.036981 457.757389 
L 1197.200942 468.142918 
L 1443.364903 498.609456 
" clip-path="url(#p6ca8c561f7)" style="fill: none; stroke: #225ea8; stroke-width: 2; stroke-linecap: square"/>
    <g clip-path="url(#p6ca8c561f7)">
     <use xlink:href="#mddd63a25f3" x="212.545097" y="504.154273" style="fill: #225ea8; stroke: #225ea8"/>
     <use xlink:href="#mddd63a25f3" x="458.709058" y="436.272056" style="fill: #225ea8; stroke: #225ea8"/>
     <use xlink:href="#mddd63a25f3" x="704.873019" y="437.186208" style="fill: #225ea8; stroke: #225ea8"/>
     <use xlink:href="#mddd63a25f3" x="951.036981" y="457.757389" style="fill: #225ea8; stroke: #225ea8"/>
     <use xlink:href="#mddd63a25f3" x="1197.200942" y="468.142918" style="fill: #225ea8; stroke: #225ea8"/>
     <use xlink:href="#mddd63a25f3" x="1443.364903" y="498.609456" style="fill: #225ea8; stroke: #225ea8"/>
    </g>
   </g>
   <g id="line2d_25">
    <path d="M 212.545097 142.138466 
L 458.709058 74.25625 
L 704.873019 75.170401 
L 951.036981 95.741582 
L 1197.200942 106.127112 
L 1443.364903 136.59365 
" clip-path="url(#p6ca8c561f7)" style="fill: none; stroke-dasharray: 7.4,3.2; stroke-dashoffset: 0; stroke: #1d91c0; stroke-width: 2"/>
    <g clip-path="url(#p6ca8c561f7)">
     <use xlink:href="#m91bd4a8813" x="212.545097" y="142.138466" style="fill: #1d91c0; stroke: #1d91c0; stroke-linejoin: miter"/>
     <use xlink:href="#m91bd4a8813" x="458.709058" y="74.25625" style="fill: #1d91c0; stroke: #1d91c0; stroke-linejoin: miter"/>
     <use xlink:href="#m91bd4a8813" x="704.873019" y="75.170401" style="fill: #1d91c0; stroke: #1d91c0; stroke-linejoin: miter"/>
     <use xlink:href="#m91bd4a8813" x="951.036981" y="95.741582" style="fill: #1d91c0; stroke: #1d91c0; stroke-linejoin: miter"/>
     <use xlink:href="#m91bd4a8813" x="1197.200942" y="106.127112" style="fill: #1d91c0; stroke: #1d91c0; stroke-linejoin: miter"/>
     <use xlink:href="#m91bd4a8813" x="1443.364903" y="136.59365" style="fill: #1d91c0; stroke: #1d91c0; stroke-linejoin: miter"/>
    </g>
   </g>
   <g id="line2d_26">
    <path d="M 212.545097 229.867421 
L 458.709058 297.749637 
L 704.873019 296.835486 
L 951.036981 276.264305 
L 1197.200942 265.878775 
L 1443.364903 235.412238 
" clip-path="url(#p6ca8c561f7)" style="fill: none; stroke-dasharray: 7.4,3.2; stroke-dashoffset: 0; stroke: #1d6fc0; stroke-width: 2"/>
    <g clip-path="url(#p6ca8c561f7)">
     <use xlink:href="#mef2775b4f4" x="212.545097" y="229.867421" style="fill: #1d6fc0; stroke: #1d6fc0; stroke-linejoin: miter"/>
     <use xlink:href="#mef2775b4f4" x="458.709058" y="297.749637" style="fill: #1d6fc0; stroke: #1d6fc0; stroke-linejoin: miter"/>
     <use xlink:href="#mef2775b4f4" x="704.873019" y="296.835486" style="fill: #1d6fc0; stroke: #1d6fc0; stroke-linejoin: miter"/>
     <use xlink:href="#mef2775b4f4" x="951.036981" y="276.264305" style="fill: #1d6fc0; stroke: #1d6fc0; stroke-linejoin: miter"/>
     <use xlink:href="#mef2775b4f4" x="1197.200942" y="265.878775" style="fill: #1d6fc0; stroke: #1d6fc0; stroke-linejoin: miter"/>
     <use xlink:href="#mef2775b4f4" x="1443.364903" y="235.412238" style="fill: #1d6fc0; stroke: #1d6fc0; stroke-linejoin: miter"/>
    </g>
   </g>
   <g id="patch_22">
    <path d="M 69.77 548.01875 
L 69.77 26.88 
" style="fill: none; stroke: #000000; stroke-width: 0.8; stroke-linejoin: miter; stroke-linecap: square"/>
   </g>
   <g id="patch_23">
    <path d="M 1586.14 548.01875 
L 1586.14 26.88 
" style="fill: none; stroke: #000000; stroke-width: 0.8; stroke-linejoin: miter; stroke-linecap: square"/>
   </g>
   <g id="patch_24">
    <path d="M 69.77 548.01875 
L 1586.14 548.01875 
" style="fill: none; stroke: #000000; stroke-width: 0.8; stroke-linejoin: miter; stroke-linecap: square"/>
   </g>
   <g id="patch_25">
    <path d="M 69.77 26.88 
L 1586.14 26.88 
" style="fill: none; stroke: #000000; stroke-width: 0.8; stroke-linejoin: miter; stroke-linecap: square"/>
   </g>
   <g id="text_40">
    <!-- 14827.00 -->
    <g transform="translate(193.458847 519.108279) scale(0.08 -0.08)">
     <use xlink:href="#DejaVuSans-31"/>
     <use xlink:href="#DejaVuSans-34" transform="translate(63.623047 0)"/>
     <use xlink:href="#DejaVuSans-38" transform="translate(127.246094 0)"/>
     <use xlink:href="#DejaVuSans-32" transform="translate(190.869141 0)"/>
     <use xlink:href="#DejaVuSans-37" transform="translate(254.492188 0)"/>
     <use xlink:href="#DejaVuSans-2e" transform="translate(318.115234 0)"/>
     <use xlink:href="#DejaVuSans-30" transform="translate(349.902344 0)"/>
     <use xlink:href="#DejaVuSans-30" transform="translate(413.525391 0)"/>
    </g>
   </g>
   <g id="text_41">
    <!-- 137195 -->
    <g transform="translate(197.275097 131.59946) scale(0.08 -0.08)">
     <use xlink:href="#DejaVuSans-31"/>
     <use xlink:href="#DejaVuSans-33" transform="translate(63.623047 0)"/>
     <use xlink:href="#DejaVuSans-37" transform="translate(127.246094 0)"/>
     <use xlink:href="#DejaVuSans-31" transform="translate(190.869141 0)"/>
     <use xlink:href="#DejaVuSans-39" transform="translate(254.492188 0)"/>
     <use xlink:href="#DejaVuSans-35" transform="translate(318.115234 0)"/>
    </g>
   </g>
   <g id="text_42">
    <!-- 107541 -->
    <g transform="translate(197.275097 244.821428) scale(0.08 -0.08)">
     <use xlink:href="#DejaVuSans-31"/>
     <use xlink:href="#DejaVuSans-30" transform="translate(63.623047 0)"/>
     <use xlink:href="#DejaVuSans-37" transform="translate(127.246094 0)"/>
     <use xlink:href="#DejaVuSans-35" transform="translate(190.869141 0)"/>
     <use xlink:href="#DejaVuSans-34" transform="translate(254.492188 0)"/>
     <use xlink:href="#DejaVuSans-31" transform="translate(318.115234 0)"/>
    </g>
   </g>
   <g id="text_43">
    <!-- 37772.44 -->
    <g transform="translate(439.622808 451.226063) scale(0.08 -0.08)">
     <use xlink:href="#DejaVuSans-33"/>
     <use xlink:href="#DejaVuSans-37" transform="translate(63.623047 0)"/>
     <use xlink:href="#DejaVuSans-37" transform="translate(127.246094 0)"/>
     <use xlink:href="#DejaVuSans-37" transform="translate(190.869141 0)"/>
     <use xlink:href="#DejaVuSans-32" transform="translate(254.492188 0)"/>
     <use xlink:href="#DejaVuSans-2e" transform="translate(318.115234 0)"/>
     <use xlink:href="#DejaVuSans-34" transform="translate(349.902344 0)"/>
     <use xlink:href="#DejaVuSans-34" transform="translate(413.525391 0)"/>
    </g>
   </g>
   <g id="text_44">
    <!-- 160140 -->
    <g transform="translate(443.439058 63.717243) scale(0.08 -0.08)">
     <use xlink:href="#DejaVuSans-31"/>
     <use xlink:href="#DejaVuSans-36" transform="translate(63.623047 0)"/>
     <use xlink:href="#DejaVuSans-30" transform="translate(127.246094 0)"/>
     <use xlink:href="#DejaVuSans-31" transform="translate(190.869141 0)"/>
     <use xlink:href="#DejaVuSans-34" transform="translate(254.492188 0)"/>
     <use xlink:href="#DejaVuSans-30" transform="translate(318.115234 0)"/>
    </g>
   </g>
   <g id="text_45">
    <!-- 84596 -->
    <g transform="translate(445.984058 312.703644) scale(0.08 -0.08)">
     <use xlink:href="#DejaVuSans-38"/>
     <use xlink:href="#DejaVuSans-34" transform="translate(63.623047 0)"/>
     <use xlink:href="#DejaVuSans-35" transform="translate(127.246094 0)"/>
     <use xlink:href="#DejaVuSans-39" transform="translate(190.869141 0)"/>
     <use xlink:href="#DejaVuSans-36" transform="translate(254.492188 0)"/>
    </g>
   </g>
   <g id="text_46">
    <!-- 37463.44 -->
    <g transform="translate(685.786769 452.140214) scale(0.08 -0.08)">
     <use xlink:href="#DejaVuSans-33"/>
     <use xlink:href="#DejaVuSans-37" transform="translate(63.623047 0)"/>
     <use xlink:href="#DejaVuSans-34" transform="translate(127.246094 0)"/>
     <use xlink:href="#DejaVuSans-36" transform="translate(190.869141 0)"/>
     <use xlink:href="#DejaVuSans-33" transform="translate(254.492188 0)"/>
     <use xlink:href="#DejaVuSans-2e" transform="translate(318.115234 0)"/>
     <use xlink:href="#DejaVuSans-34" transform="translate(349.902344 0)"/>
     <use xlink:href="#DejaVuSans-34" transform="translate(413.525391 0)"/>
    </g>
   </g>
   <g id="text_47">
    <!-- 159831 -->
    <g transform="translate(689.603019 64.631395) scale(0.08 -0.08)">
     <use xlink:href="#DejaVuSans-31"/>
     <use xlink:href="#DejaVuSans-35" transform="translate(63.623047 0)"/>
     <use xlink:href="#DejaVuSans-39" transform="translate(127.246094 0)"/>
     <use xlink:href="#DejaVuSans-38" transform="translate(190.869141 0)"/>
     <use xlink:href="#DejaVuSans-33" transform="translate(254.492188 0)"/>
     <use xlink:href="#DejaVuSans-31" transform="translate(318.115234 0)"/>
    </g>
   </g>
   <g id="text_48">
    <!-- 84905 -->
    <g transform="translate(692.148019 311.789493) scale(0.08 -0.08)">
     <use xlink:href="#DejaVuSans-38"/>
     <use xlink:href="#DejaVuSans-34" transform="translate(63.623047 0)"/>
     <use xlink:href="#DejaVuSans-39" transform="translate(127.246094 0)"/>
     <use xlink:href="#DejaVuSans-30" transform="translate(190.869141 0)"/>
     <use xlink:href="#DejaVuSans-35" transform="translate(254.492188 0)"/>
    </g>
   </g>
   <g id="text_49">
    <!-- 30510.00 -->
    <g transform="translate(931.950731 472.711396) scale(0.08 -0.08)">
     <use xlink:href="#DejaVuSans-33"/>
     <use xlink:href="#DejaVuSans-30" transform="translate(63.623047 0)"/>
     <use xlink:href="#DejaVuSans-35" transform="translate(127.246094 0)"/>
     <use xlink:href="#DejaVuSans-31" transform="translate(190.869141 0)"/>
     <use xlink:href="#DejaVuSans-30" transform="translate(254.492188 0)"/>
     <use xlink:href="#DejaVuSans-2e" transform="translate(318.115234 0)"/>
     <use xlink:href="#DejaVuSans-30" transform="translate(349.902344 0)"/>
     <use xlink:href="#DejaVuSans-30" transform="translate(413.525391 0)"/>
    </g>
   </g>
   <g id="text_50">
    <!-- 152878 -->
    <g transform="translate(935.766981 85.202576) scale(0.08 -0.08)">
     <use xlink:href="#DejaVuSans-31"/>
     <use xlink:href="#DejaVuSans-35" transform="translate(63.623047 0)"/>
     <use xlink:href="#DejaVuSans-32" transform="translate(127.246094 0)"/>
     <use xlink:href="#DejaVuSans-38" transform="translate(190.869141 0)"/>
     <use xlink:href="#DejaVuSans-37" transform="translate(254.492188 0)"/>
     <use xlink:href="#DejaVuSans-38" transform="translate(318.115234 0)"/>
    </g>
   </g>
   <g id="text_51">
    <!-- 91858 -->
    <g transform="translate(938.311981 291.218312) scale(0.08 -0.08)">
     <use xlink:href="#DejaVuSans-39"/>
     <use xlink:href="#DejaVuSans-31" transform="translate(63.623047 0)"/>
     <use xlink:href="#DejaVuSans-38" transform="translate(127.246094 0)"/>
     <use xlink:href="#DejaVuSans-35" transform="translate(190.869141 0)"/>
     <use xlink:href="#DejaVuSans-38" transform="translate(254.492188 0)"/>
    </g>
   </g>
   <g id="text_52">
    <!-- 26999.50 -->
    <g transform="translate(1178.114692 483.096925) scale(0.08 -0.08)">
     <use xlink:href="#DejaVuSans-32"/>
     <use xlink:href="#DejaVuSans-36" transform="translate(63.623047 0)"/>
     <use xlink:href="#DejaVuSans-39" transform="translate(127.246094 0)"/>
     <use xlink:href="#DejaVuSans-39" transform="translate(190.869141 0)"/>
     <use xlink:href="#DejaVuSans-39" transform="translate(254.492188 0)"/>
     <use xlink:href="#DejaVuSans-2e" transform="translate(318.115234 0)"/>
     <use xlink:href="#DejaVuSans-35" transform="translate(349.902344 0)"/>
     <use xlink:href="#DejaVuSans-30" transform="translate(413.525391 0)"/>
    </g>
   </g>
   <g id="text_53">
    <!-- 149368 -->
    <g transform="translate(1181.930942 95.588105) scale(0.08 -0.08)">
     <use xlink:href="#DejaVuSans-31"/>
     <use xlink:href="#DejaVuSans-34" transform="translate(63.623047 0)"/>
     <use xlink:href="#DejaVuSans-39" transform="translate(127.246094 0)"/>
     <use xlink:href="#DejaVuSans-33" transform="translate(190.869141 0)"/>
     <use xlink:href="#DejaVuSans-36" transform="translate(254.492188 0)"/>
     <use xlink:href="#DejaVuSans-38" transform="translate(318.115234 0)"/>
    </g>
   </g>
   <g id="text_54">
    <!-- 95368 -->
    <g transform="translate(1184.475942 280.832782) scale(0.08 -0.08)">
     <use xlink:href="#DejaVuSans-39"/>
     <use xlink:href="#DejaVuSans-35" transform="translate(63.623047 0)"/>
     <use xlink:href="#DejaVuSans-33" transform="translate(127.246094 0)"/>
     <use xlink:href="#DejaVuSans-36" transform="translate(190.869141 0)"/>
     <use xlink:href="#DejaVuSans-38" transform="translate(254.492188 0)"/>
    </g>
   </g>
   <g id="text_55">
    <!-- 16701.25 -->
    <g transform="translate(1424.278653 513.563463) scale(0.08 -0.08)">
     <use xlink:href="#DejaVuSans-31"/>
     <use xlink:href="#DejaVuSans-36" transform="translate(63.623047 0)"/>
     <use xlink:href="#DejaVuSans-37" transform="translate(127.246094 0)"/>
     <use xlink:href="#DejaVuSans-30" transform="translate(190.869141 0)"/>
     <use xlink:href="#DejaVuSans-31" transform="translate(254.492188 0)"/>
     <use xlink:href="#DejaVuSans-2e" transform="translate(318.115234 0)"/>
     <use xlink:href="#DejaVuSans-32" transform="translate(349.902344 0)"/>
     <use xlink:href="#DejaVuSans-35" transform="translate(413.525391 0)"/>
    </g>
   </g>
   <g id="text_56">
    <!-- 139069 -->
    <g transform="translate(1428.094903 126.054643) scale(0.08 -0.08)">
     <use xlink:href="#DejaVuSans-31"/>
     <use xlink:href="#DejaVuSans-33" transform="translate(63.623047 0)"/>
     <use xlink:href="#DejaVuSans-39" transform="translate(127.246094 0)"/>
     <use xlink:href="#DejaVuSans-30" transform="translate(190.869141 0)"/>
     <use xlink:href="#DejaVuSans-36" transform="translate(254.492188 0)"/>
     <use xlink:href="#DejaVuSans-39" transform="translate(318.115234 0)"/>
    </g>
   </g>
   <g id="text_57">
    <!-- 105667 -->
    <g transform="translate(1428.094903 250.366244) scale(0.08 -0.08)">
     <use xlink:href="#DejaVuSans-31"/>
     <use xlink:href="#DejaVuSans-30" transform="translate(63.623047 0)"/>
     <use xlink:href="#DejaVuSans-35" transform="translate(127.246094 0)"/>
     <use xlink:href="#DejaVuSans-36" transform="translate(190.869141 0)"/>
     <use xlink:href="#DejaVuSans-36" transform="translate(254.492188 0)"/>
     <use xlink:href="#DejaVuSans-37" transform="translate(318.115234 0)"/>
    </g>
   </g>
   <g id="text_58">
    <!-- Num of Token Copies &amp; Node Load Statistics -->
    <g transform="translate(695.304375 20.88) scale(0.12 -0.12)">
     <defs>
      <path id="DejaVuSans-26" d="M 1556 2509 
Q 1272 2256 1139 2004 
Q 1006 1753 1006 1478 
Q 1006 1022 1337 719 
Q 1669 416 2169 416 
Q 2466 416 2725 514 
Q 2984 613 3213 813 
L 1556 2509 
z
M 1997 2859 
L 3584 1234 
Q 3769 1513 3872 1830 
Q 3975 2147 3994 2503 
L 4575 2503 
Q 4538 2091 4375 1687 
Q 4213 1284 3922 891 
L 4794 0 
L 4006 0 
L 3559 459 
Q 3234 181 2878 45 
Q 2522 -91 2113 -91 
Q 1359 -91 881 339 
Q 403 769 403 1441 
Q 403 1841 612 2192 
Q 822 2544 1241 2853 
Q 1091 3050 1012 3245 
Q 934 3441 934 3628 
Q 934 4134 1281 4442 
Q 1628 4750 2203 4750 
Q 2463 4750 2720 4694 
Q 2978 4638 3244 4525 
L 3244 3956 
Q 2972 4103 2725 4179 
Q 2478 4256 2266 4256 
Q 1938 4256 1733 4082 
Q 1528 3909 1528 3634 
Q 1528 3475 1620 3314 
Q 1713 3153 1997 2859 
z
" transform="scale(0.015625)"/>
     </defs>
     <use xlink:href="#DejaVuSans-4e"/>
     <use xlink:href="#DejaVuSans-75" transform="translate(74.804688 0)"/>
     <use xlink:href="#DejaVuSans-6d" transform="translate(138.183594 0)"/>
     <use xlink:href="#DejaVuSans-20" transform="translate(235.595703 0)"/>
     <use xlink:href="#DejaVuSans-6f" transform="translate(267.382812 0)"/>
     <use xlink:href="#DejaVuSans-66" transform="translate(328.564453 0)"/>
     <use xlink:href="#DejaVuSans-20" transform="translate(363.769531 0)"/>
     <use xlink:href="#DejaVuSans-54" transform="translate(395.556641 0)"/>
     <use xlink:href="#DejaVuSans-6f" transform="translate(439.640625 0)"/>
     <use xlink:href="#DejaVuSans-6b" transform="translate(500.822266 0)"/>
     <use xlink:href="#DejaVuSans-65" transform="translate(555.107422 0)"/>
     <use xlink:href="#DejaVuSans-6e" transform="translate(616.630859 0)"/>
     <use xlink:href="#DejaVuSans-20" transform="translate(680.009766 0)"/>
     <use xlink:href="#DejaVuSans-43" transform="translate(711.796875 0)"/>
     <use xlink:href="#DejaVuSans-6f" transform="translate(781.621094 0)"/>
     <use xlink:href="#DejaVuSans-70" transform="translate(842.802734 0)"/>
     <use xlink:href="#DejaVuSans-69" transform="translate(906.279297 0)"/>
     <use xlink:href="#DejaVuSans-65" transform="translate(934.0625 0)"/>
     <use xlink:href="#DejaVuSans-73" transform="translate(995.585938 0)"/>
     <use xlink:href="#DejaVuSans-20" transform="translate(1047.685547 0)"/>
     <use xlink:href="#DejaVuSans-26" transform="translate(1079.472656 0)"/>
     <use xlink:href="#DejaVuSans-20" transform="translate(1157.451172 0)"/>
     <use xlink:href="#DejaVuSans-4e" transform="translate(1189.238281 0)"/>
     <use xlink:href="#DejaVuSans-6f" transform="translate(1264.042969 0)"/>
     <use xlink:href="#DejaVuSans-64" transform="translate(1325.224609 0)"/>
     <use xlink:href="#DejaVuSans-65" transform="translate(1388.701172 0)"/>
     <use xlink:href="#DejaVuSans-20" transform="translate(1450.224609 0)"/>
     <use xlink:href="#DejaVuSans-4c" transform="translate(1482.011719 0)"/>
     <use xlink:href="#DejaVuSans-6f" transform="translate(1535.974609 0)"/>
     <use xlink:href="#DejaVuSans-61" transform="translate(1597.15625 0)"/>
     <use xlink:href="#DejaVuSans-64" transform="translate(1658.435547 0)"/>
     <use xlink:href="#DejaVuSans-20" transform="translate(1721.912109 0)"/>
     <use xlink:href="#DejaVuSans-53" transform="translate(1753.699219 0)"/>
     <use xlink:href="#DejaVuSans-74" transform="translate(1817.175781 0)"/>
     <use xlink:href="#DejaVuSans-61" transform="translate(1856.384766 0)"/>
     <use xlink:href="#DejaVuSans-74" transform="translate(1917.664062 0)"/>
     <use xlink:href="#DejaVuSans-69" transform="translate(1956.873047 0)"/>
     <use xlink:href="#DejaVuSans-73" transform="translate(1984.65625 0)"/>
     <use xlink:href="#DejaVuSans-74" transform="translate(2036.755859 0)"/>
     <use xlink:href="#DejaVuSans-69" transform="translate(2075.964844 0)"/>
     <use xlink:href="#DejaVuSans-63" transform="translate(2103.748047 0)"/>
     <use xlink:href="#DejaVuSans-73" transform="translate(2158.728516 0)"/>
    </g>
   </g>
  </g>
 </g>
 <defs>
  <clipPath id="p6ca8c561f7">
   <rect x="69.77" y="26.88" width="1516.37" height="521.13875"/>
  </clipPath>
 </defs>
</svg>
